<?xml version="1.0" encoding="UTF-8" standalone="no"?>
<svg
   xmlns:dc="http://purl.org/dc/elements/1.1/"
   xmlns:cc="http://creativecommons.org/ns#"
   xmlns:rdf="http://www.w3.org/1999/02/22-rdf-syntax-ns#"
   xmlns:svg="http://www.w3.org/2000/svg"
   xmlns="http://www.w3.org/2000/svg"
   xmlns:sodipodi="http://sodipodi.sourceforge.net/DTD/sodipodi-0.dtd"
   xmlns:inkscape="http://www.inkscape.org/namespaces/inkscape"
   version="1.0"
   width="11"
   height="10.867587"
   id="svg2"
   sodipodi:docname="us-highway-oh-2.svg"
   inkscape:version="0.92.2 5c3e80d, 2017-08-06">
  <metadata
     id="metadata14">
    <rdf:RDF>
      <cc:Work
         rdf:about="">
        <dc:format>image/svg+xml</dc:format>
        <dc:type
           rdf:resource="http://purl.org/dc/dcmitype/StillImage" />
      </cc:Work>
    </rdf:RDF>
  </metadata>
  <sodipodi:namedview
     pagecolor="#ffffff"
     bordercolor="#666666"
     borderopacity="1"
     objecttolerance="10"
     gridtolerance="10"
     guidetolerance="10"
     inkscape:pageopacity="0"
     inkscape:pageshadow="2"
     inkscape:window-width="1280"
     inkscape:window-height="755"
     id="namedview12"
     showgrid="false"
     inkscape:zoom="22.627417"
     inkscape:cx="-3.3312591"
     inkscape:cy="11.492278"
     inkscape:window-x="0"
     inkscape:window-y="1"
     inkscape:window-maximized="1"
     inkscape:current-layer="svg2" />
  <defs
     id="defs4" />
  <g
     id="g4646"
     transform="matrix(89.164342,0,0,88.233889,50.205766,-2154.9677)"
     style="color-interpolation:linearRGB;color-interpolation-filters:linearRGB">
    <path
       style="color-interpolation:linearRGB;color-interpolation-filters:linearRGB;fill:#ffffff;stroke:#000000;stroke-width:0.00652222;stroke-miterlimit:4;stroke-dasharray:none;stroke-opacity:1"
       d="m -0.52496992,24.430399 c 0.004903,0.0011 0.009609,0.0049 0.0144737,0.0011 0.005164,-0.0017 0.009598,0.0039 0.0146803,0.0013 0.004316,-0.0011 0.006841,0.004 0.0109971,0.0035 0.0116668,-0.0048 0.0248421,-0.0021 0.0360694,-0.0082 0.001724,-3.92e-4 0.00442,-0.0029 0.005665,-5.06e-4 2.2387e-4,0.01589 6.58e-5,0.03184 7.845e-5,0.04775 3.1362e-4,0.0031 -0.004534,0.0044 -0.002873,0.0075 0.002667,0.003 8.7364e-4,0.0068 -8.6541e-4,0.0097 -0.002672,0.0056 7.719e-5,0.01217 -0.002939,0.01776 -0.003776,0.01424 -0.0189009,0.01688 -0.0289762,0.02451 -0.001803,0.0025 -0.003717,0.0062 -0.007431,0.0051 -0.005086,0.0031 -0.0107012,0.0032 -0.0164776,0.003 -0.004269,5.58e-4 -0.008977,7.94e-4 -0.0125153,-0.0021 -0.003801,-0.0047 -0.009245,-0.0073 -0.0151159,-0.0072 -0.009418,-5e-6 -0.0182604,-0.0039 -0.0240842,-0.01108 -0.002057,-8.5e-4 -0.006142,-9.98e-4 -0.005512,-0.0042 5.263e-5,-0.02922 -1.0523e-4,-0.05846 7.888e-5,-0.08766 0.001035,-0.0021 0.003941,-6.64e-4 0.005767,-10e-4 0.00966,2.69e-4 0.0193199,5.38e-4 0.0289798,8.07e-4 z"
       id="path4648"
       inkscape:connector-curvature="0" />
    <!-- <rect
	x="0"
	y="5"
	width="24"
	height="12"
	class="textblock"
/> -->
  </g>
</svg>
