<?xml version="1.0" encoding="UTF-8" standalone="no"?>
<!-- Generator: Adobe Illustrator 12.0.0, SVG Export Plug-In . SVG Version: 6.00 Build 51448)  -->

<svg
   xmlns:dc="http://purl.org/dc/elements/1.1/"
   xmlns:cc="http://creativecommons.org/ns#"
   xmlns:rdf="http://www.w3.org/1999/02/22-rdf-syntax-ns#"
   xmlns:svg="http://www.w3.org/2000/svg"
   xmlns="http://www.w3.org/2000/svg"
   xmlns:sodipodi="http://sodipodi.sourceforge.net/DTD/sodipodi-0.dtd"
   xmlns:inkscape="http://www.inkscape.org/namespaces/inkscape"
   version="1.1"
   id="Layer_1"
   width="10.999999"
   height="10.999999"
   viewBox="0 0 10.999999 10.999999"
   overflow="visible"
   enable-background="new 0 0 385 385"
   xml:space="preserve"
   sodipodi:docname="us-highway-fl-2.svg"
   style="overflow:visible"
   inkscape:version="0.92.2 5c3e80d, 2017-08-06"><metadata
     id="metadata43"><rdf:RDF><cc:Work
         rdf:about=""><dc:format>image/svg+xml</dc:format><dc:type
           rdf:resource="http://purl.org/dc/dcmitype/StillImage" /></cc:Work></rdf:RDF></metadata><defs
     id="defs41" /><sodipodi:namedview
     pagecolor="#ffffff"
     bordercolor="#666666"
     borderopacity="1"
     objecttolerance="10"
     gridtolerance="10"
     guidetolerance="10"
     inkscape:pageopacity="0"
     inkscape:pageshadow="2"
     inkscape:window-width="1280"
     inkscape:window-height="755"
     id="namedview39"
     showgrid="false"
     inkscape:zoom="39.231169"
     inkscape:cx="6.2808785"
     inkscape:cy="3.7785668"
     inkscape:window-x="0"
     inkscape:window-y="1"
     inkscape:window-maximized="1"
     inkscape:current-layer="Layer_1" /><g
     id="g22"
     transform="matrix(0.02956989,0,0,0.02956989,-0.19220429,-0.19220429)"><g
       id="g20"><path
         inkscape:connector-curvature="0"
         id="path16"
         d="m 6.5,28.5 c 0,-12.150391 9.849609,-22 22,-22 h 328 c 12.15039,0 22,9.849609 22,22 v 328 c 0,12.15039 -9.84961,22 -22,22 h -328 c -12.150391,0 -22,-9.84961 -22,-22 z" /><path
         inkscape:connector-curvature="0"
         id="path18"
         d="M 192.5,192.5" /></g></g><g
     id="g30"
     transform="matrix(0.02956989,0,0,0.02956989,-0.19220429,-0.19220429)"><g
       id="g28"><path
         style="fill:#ffffff"
         inkscape:connector-curvature="0"
         id="path24"
         d="m 14.5,28.5 c 0,-7.731934 6.268066,-14 14,-14 h 328 c 7.73242,0 14,6.268066 14,14 v 328 c 0,7.73242 -6.26758,14 -14,14 h -328 c -7.731934,0 -14,-6.26758 -14,-14 z" /><path
         style="fill:#ffffff"
         inkscape:connector-curvature="0"
         id="path26"
         d="M 192.5,192.5" /></g></g><g
     id="g34"
     transform="matrix(0.02956989,0,0,0.02956989,-0.19220429,-0.19220429)"><polygon
       style="clip-rule:evenodd;fill-rule:evenodd"
       id="polygon32"
       points="142.03857,28.5 143.83936,31.240234 145.64307,38.548828 262.78613,39.463867 266.39062,31.240234 302.43262,32.154785 333.97266,140.87842 327.66211,179.25195 336.67578,230.41797 351.0918,258.74023 356.5,287.97656 356.5,323.60938 321.35547,356.5 299.73047,356.5 276.30078,345.53711 283.08203,331.04492 303.28906,340.5 315.03711,340.5 340.5,316.66992 340.5,289.44336 335.78125,263.93164 321.33203,235.54688 311.43262,179.34424 317.59668,141.85693 290.32715,47.852539 276.73047,47.507812 273.20703,55.545898 133.5249,54.45459 130.70801,44.5 47.450684,44.5 51.203125,66.563477 64.711426,67.67334 69.365234,62.955078 104.85059,71.255371 144.96973,101.76465 190.38184,92.021484 210.87891,103.02539 203.31055,117.12256 187.99219,108.89893 141.13672,118.95166 97.882812,86.057617 74.456543,80.577637 70.853027,84.231445 37.512695,81.492188 28.5,28.5 " /></g></svg>