<?xml version="1.0" encoding="UTF-8" standalone="no"?>
<!-- Generator: Adobe Illustrator 12.0.1, SVG Export Plug-In . SVG Version: 6.00 Build 51448)  -->

<svg
   xmlns:dc="http://purl.org/dc/elements/1.1/"
   xmlns:cc="http://creativecommons.org/ns#"
   xmlns:rdf="http://www.w3.org/1999/02/22-rdf-syntax-ns#"
   xmlns:svg="http://www.w3.org/2000/svg"
   xmlns="http://www.w3.org/2000/svg"
   xmlns:sodipodi="http://sodipodi.sourceforge.net/DTD/sodipodi-0.dtd"
   xmlns:inkscape="http://www.inkscape.org/namespaces/inkscape"
   version="1.1"
   id="Layer_1"
   width="11"
   height="11.120816"
   viewBox="0 0 11 11.120816"
   overflow="visible"
   enable-background="new 0 0 389.667 393.947"
   xml:space="preserve"
   inkscape:version="0.92.2 5c3e80d, 2017-08-06"
   sodipodi:docname="us-highway-co.svg"
   style="overflow:visible"><metadata
     id="metadata3396"><rdf:RDF><cc:Work
         rdf:about=""><dc:format>image/svg+xml</dc:format><dc:type
           rdf:resource="http://purl.org/dc/dcmitype/StillImage" /><dc:title /></cc:Work></rdf:RDF></metadata><defs
     id="defs3394"><inkscape:perspective
       sodipodi:type="inkscape:persp3d"
       inkscape:vp_x="0 : 196.97349 : 1"
       inkscape:vp_y="0 : 999.99996 : 0"
       inkscape:vp_z="389.66698 : 196.97349 : 1"
       inkscape:persp3d-origin="194.8335 : 131.31565 : 1"
       id="perspective3398" /></defs><sodipodi:namedview
     pagecolor="#ffffff"
     bordercolor="#666666"
     borderopacity="1"
     objecttolerance="10"
     gridtolerance="10"
     guidetolerance="10"
     inkscape:pageopacity="0"
     inkscape:pageshadow="2"
     inkscape:window-width="1280"
     inkscape:window-height="755"
     id="namedview3392"
     showgrid="false"
     inkscape:zoom="38.340184"
     inkscape:cx="5.071741"
     inkscape:cy="5.5138652"
     inkscape:window-x="10"
     inkscape:window-y="45"
     inkscape:window-maximized="0"
     inkscape:current-layer="Layer_1"
     fit-margin-top="0"
     fit-margin-left="0"
     fit-margin-right="0"
     fit-margin-bottom="0" /><path
     d="m 10.491123,10.124325 c 0,0.282551 -0.244142,0.511652 -0.5453465,0.511652 H 1.0041292 c -0.30120544,0 -0.54537251,-0.229101 -0.54537251,-0.511652 V 0.91383551 c 0,-0.28256632 0.24416707,-0.51167836 0.54537251,-0.51167836 h 8.9416473 c 0.3012045,0 0.5453465,0.22911204 0.5453465,0.51167836 z"
     id="path3372"
     inkscape:connector-curvature="0"
     style="fill:#ffffff;stroke:#000000;stroke-width:0.1309794;stroke-opacity:0" /><rect
     x="0.40720665"
     y="0.40718099"
     width="10.151006"
     height="1.6227856"
     id="rect3374"
     style="fill:#5565a6;stroke-width:0.02822923;fill-opacity:1" /><rect
     x="0.40720665"
     y="3.9117281"
     width="10.289159"
     height="1.7781593"
     id="rect3376"
     style="fill:#5565a6;stroke-width:0.02822923;fill-opacity:1" /><path
     d="m 10.644566,10.385583 c 0,0.2098 -0.166948,0.37982 -0.372908,0.37982 H 0.72831416 c -0.20593224,0 -0.3728799,-0.17002 -0.3728799,-0.37982 V 0.7007331 c 0,-0.2098 0.16694766,-0.37986 0.3728799,-0.37986 H 10.271658 c 0.20596,0 0.372908,0.17003 0.372908,0.37986 z"
     id="path3378"
     inkscape:connector-curvature="0"
     style="fill:none;stroke:#000000;stroke-width:0.22583385" /><path
     d="m 4.1620613,2.8413831 c 0,0.43379 -0.3257371,0.79408 -0.7595074,0.79408 -0.4338268,0 -0.7855066,-0.35168 -0.7855066,-0.7855 0,-0.43383 0.3516798,-0.78551 0.7855066,-0.78551 0.4337703,0 0.7595074,0.3431 0.7595074,0.77693 z"
     id="path3380"
     inkscape:connector-curvature="0"
     style="fill:#fffc61;stroke-width:0.02822923;fill-opacity:1" /><g
     id="g3382"
     transform="matrix(0.02822923,0,0,0.02822923,0,-6.9233942e-6)"
     style="fill:#e15a68;fill-opacity:1"><path
       d="m 145.91,90.87 c -3.517,-8.562 -12.232,-17.124 -25.685,-17.124 -15.323,0 -26.909,12.077 -26.909,25.991 0,16.512 13.161,28.437 28.132,28.437 9.173,0 17.124,-4.28 22.628,-12.842 l 25.073,17.124 c -5.989,13.033 -27.241,28.743 -51.371,28.743 -27.299,0 -58.097,-26.296 -58.097,-62.378 0,-37.304 28.6,-60.543 57.485,-60.543 25.227,0 44.49,14.677 53.817,36.693 z"
       id="path3384"
       inkscape:connector-curvature="0"
       style="fill:#e15a68;fill-opacity:1" /></g></svg>