<?xml version="1.0" encoding="UTF-8" standalone="no"?>
<!-- Generator: Adobe Illustrator 12.0.0, SVG Export Plug-In . SVG Version: 6.00 Build 51448)  -->

<svg
   xmlns:dc="http://purl.org/dc/elements/1.1/"
   xmlns:cc="http://creativecommons.org/ns#"
   xmlns:rdf="http://www.w3.org/1999/02/22-rdf-syntax-ns#"
   xmlns:svg="http://www.w3.org/2000/svg"
   xmlns="http://www.w3.org/2000/svg"
   xmlns:sodipodi="http://sodipodi.sourceforge.net/DTD/sodipodi-0.dtd"
   xmlns:inkscape="http://www.inkscape.org/namespaces/inkscape"
   version="1.1"
   id="Layer_1"
   width="13.838709"
   height="10.999999"
   viewBox="0 0 13.838709 10.999999"
   overflow="visible"
   enable-background="new 0 0 481 385"
   xml:space="preserve"
   inkscape:version="0.92.2 5c3e80d, 2017-08-06"
   sodipodi:docname="us-highway-fl-3.svg"
   style="overflow:visible"><metadata
     id="metadata3117"><rdf:RDF><cc:Work
         rdf:about=""><dc:format>image/svg+xml</dc:format><dc:type
           rdf:resource="http://purl.org/dc/dcmitype/StillImage" /><dc:title /></cc:Work></rdf:RDF></metadata><defs
     id="defs3115"><inkscape:perspective
       sodipodi:type="inkscape:persp3d"
       inkscape:vp_x="0 : 192.5 : 1"
       inkscape:vp_y="0 : 1000 : 0"
       inkscape:vp_z="481 : 192.5 : 1"
       inkscape:persp3d-origin="240.5 : 128.33333 : 1"
       id="perspective3119" /></defs><sodipodi:namedview
     pagecolor="#ffffff"
     bordercolor="#666666"
     borderopacity="1"
     objecttolerance="10"
     gridtolerance="10"
     guidetolerance="10"
     inkscape:pageopacity="0"
     inkscape:pageshadow="2"
     inkscape:window-width="1280"
     inkscape:window-height="755"
     id="namedview3113"
     showgrid="false"
     inkscape:zoom="32"
     inkscape:cx="8.0649959"
     inkscape:cy="3.0460859"
     inkscape:window-x="0"
     inkscape:window-y="1"
     inkscape:window-maximized="1"
     inkscape:current-layer="Layer_1" /><g
     id="g3085"
     transform="matrix(0.02956989,0,0,0.02956989,-0.19220429,-0.19220429)"><g
       id="g3087"><path
         inkscape:connector-curvature="0"
         id="path3089"
         d="m 6.5,28.5 c 0,-12.150391 9.849609,-22 22,-22 h 424 c 12.15039,0 22,9.849609 22,22 v 328 c 0,12.15039 -9.84961,22 -22,22 h -424 c -12.150391,0 -22,-9.84961 -22,-22 z" /><path
         inkscape:connector-curvature="0"
         id="path3091"
         d="M 240.5,192.5" /></g></g><g
     id="g3093"
     transform="matrix(0.02956989,0,0,0.02956989,-0.19220429,-0.19220429)"><g
       id="g3095"><path
         inkscape:connector-curvature="0"
         style="fill:#ffffff"
         id="path3097"
         d="m 14.5,28.5 c 0,-7.731934 6.267578,-14 14,-14 h 424 c 7.73242,0 14,6.268066 14,14 v 328 c 0,7.73242 -6.26758,14 -14,14 h -424 c -7.732422,0 -14,-6.26758 -14,-14 z" /><path
         inkscape:connector-curvature="0"
         style="fill:#ffffff"
         id="path3099"
         d="M 240.5,192.5" /></g></g><g
     id="g3101"
     transform="matrix(0.02956989,0,0,0.02956989,-0.19220429,-0.19220429)"><polygon
       style="clip-rule:evenodd;fill-rule:evenodd"
       id="polygon3103"
       points="238.03857,28.5 239.83936,31.240234 241.64258,38.548828 358.78613,39.463867 362.39062,31.240234 398.43262,32.154785 429.97266,140.87842 423.66211,179.25195 432.67578,230.41797 447.0918,258.74023 452.5,287.97656 452.5,323.60938 417.35547,356.5 395.73047,356.5 372.30078,345.53711 379.08203,331.04492 399.28906,340.5 411.03711,340.5 436.5,316.66992 436.5,289.44336 431.78125,263.93164 417.33203,235.54688 407.43262,179.34424 413.59668,141.85693 386.32715,47.852539 372.73047,47.507812 369.20703,55.545898 229.5249,54.45459 226.70801,44.5 143.45068,44.5 147.20312,66.563477 160.71143,67.67334 165.36523,62.955078 200.85059,71.255371 240.96973,101.76465 286.38184,92.021484 306.87891,103.02539 299.31055,117.12256 283.99219,108.89893 237.13672,118.95166 193.88281,86.057617 170.45654,80.577637 166.85303,84.231445 133.5127,81.492188 124.5,28.5 " /></g></svg>