<?xml version="1.0" encoding="UTF-8" standalone="no"?>
<!-- Generator: Adobe Illustrator 11.0, SVG Export Plug-In . SVG Version: 6.0.0 Build 78)  -->

<svg
   xmlns:dc="http://purl.org/dc/elements/1.1/"
   xmlns:cc="http://creativecommons.org/ns#"
   xmlns:rdf="http://www.w3.org/1999/02/22-rdf-syntax-ns#"
   xmlns:svg="http://www.w3.org/2000/svg"
   xmlns="http://www.w3.org/2000/svg"
   xmlns:sodipodi="http://sodipodi.sourceforge.net/DTD/sodipodi-0.dtd"
   xmlns:inkscape="http://www.inkscape.org/namespaces/inkscape"
   width="10.999999"
   height="11.087103"
   viewBox="0 0 10.999999 11.087103"
   style="overflow:visible"
   xml:space="preserve"
   id="svg2"
   sodipodi:version="0.32"
   inkscape:version="0.92.2 5c3e80d, 2017-08-06"
   sodipodi:docname="us-highway-id.svg"
   version="1.1"><metadata
     id="metadata30"><rdf:RDF><cc:Work
         rdf:about=""><dc:format>image/svg+xml</dc:format><dc:type
           rdf:resource="http://purl.org/dc/dcmitype/StillImage" /></cc:Work></rdf:RDF></metadata><defs
     id="defs28" /><sodipodi:namedview
     inkscape:window-height="712"
     inkscape:window-width="1024"
     inkscape:pageshadow="2"
     inkscape:pageopacity="0.0"
     guidetolerance="10.0"
     gridtolerance="10.0"
     objecttolerance="10.0"
     borderopacity="1.0"
     bordercolor="#666666"
     pagecolor="#ffffff"
     id="base"
     inkscape:zoom="33.898955"
     inkscape:cx="0.2604297"
     inkscape:cy="5.1511826"
     inkscape:window-x="-4"
     inkscape:window-y="0"
     inkscape:current-layer="Layer_1"
     showgrid="false"
     inkscape:window-maximized="0" /><g
     id="Layer_1"
     transform="translate(0,-240.5589)"><path
       inkscape:connector-curvature="0"
       d="m 10.933912,251.05122 c 0,0.29197 -0.236726,0.5287 -0.5287,0.5287 H 0.59478745 c -0.29197455,0 -0.52869996,-0.23673 -0.52869996,-0.5287 v -9.89753 c 0,-0.29198 0.23672541,-0.5287 0.52869996,-0.5287 H 10.405212 c 0.291974,0 0.5287,0.23672 0.5287,0.5287 z"
       style="fill:#ffffff;stroke-width:0.04405833"
       id="White_1_" /><path
       inkscape:connector-curvature="0"
       d="m 10.655331,250.99028 c 0,0.17174 -0.138564,0.31101 -0.309422,0.31101 H 0.619372 c -0.17090226,0 -0.30942165,-0.13922 -0.30942165,-0.31101 v -9.79306 c 0,-0.17179 0.13856345,-0.31101 0.30942165,-0.31101 h 9.726537 c 0.170902,0 0.309422,0.13922 0.309422,0.31101 z"
       id="Background_1_"
       style="stroke-width:0.04405833" /><polygon
       points="0.954,236.641 0.954,14.931 151.954,14.931 151.954,250.437 14.549,250.437 4.336,246.853 "
       id="State_Mask_1_"
       transform="matrix(0.04405833,0,0,0.04405833,0,240.5589)" /><polygon
       points="33.827,63.309 33.827,69.931 35.473,73.353 36.912,76.768 41.85,78.479 45.143,81.686 48.435,85.104 51.727,88.523 51.727,90.234 56.458,95.361 58.104,95.361 59.75,96.856 63.041,96.856 64.687,98.568 64.687,100.275 63.041,103.694 63.041,107.113 61.396,113.738 63.041,117.157 63.041,122.287 61.396,125.702 61.396,134.035 66.333,135.746 67.773,135.746 71.064,130.62 72.71,128.908 76.005,130.62 77.649,132.327 79.293,137.457 79.293,139.165 82.588,145.79 85.672,149.209 85.672,154.339 88.964,157.543 90.612,157.543 93.9,159.25 95.547,162.673 97.195,166.088 98.635,171.005 100.279,171.005 103.571,167.799 111.801,167.799 113.449,166.088 116.533,164.38 116.533,166.088 119.825,166.088 121.472,164.38 124.76,166.088 129.495,164.38 131.14,164.38 132.783,162.673 132.783,159.25 136.078,159.25 141.015,166.088 142.662,167.799 145.749,248.569 15.929,248.569 8.687,248.567 2.984,243.004 2.966,191.303 4.612,184.681 4.612,179.55 1.32,177.843 1.32,162.673 4.612,160.961 7.698,154.339 7.698,152.628 10.989,145.79 10.989,142.368 12.635,137.457 14.283,134.035 15.929,134.035 15.929,130.62 14.283,128.908 10.989,125.702 7.698,123.995 4.612,115.446 6.258,112.027 2.966,107.113 2.966,21.212 25.598,21.212 25.598,53.052 28.889,56.471 32.181,61.598 "
       style="fill:#ffffff"
       id="State_Outline_1_"
       transform="matrix(0.04405833,0,0,0.04405833,0,240.5589)" /><path
       inkscape:connector-curvature="0"
       d="m 10.933912,251.05122 c 0,0.29197 -0.236726,0.5287 -0.5287,0.5287 H 0.59478745 c -0.29197455,0 -0.52869996,-0.23673 -0.52869996,-0.5287 v -9.89753 c 0,-0.29198 0.23672541,-0.5287 0.52869996,-0.5287 H 10.405212 c 0.291974,0 0.5287,0.23672 0.5287,0.5287 z"
       style="fill:none;stroke:#000000;stroke-width:0.13217498"
       id="Border_2_" /></g></svg>