<?xml version="1.0" encoding="UTF-8" standalone="no"?>
<!-- Created with Inkscape (http://www.inkscape.org/) -->

<svg
   xmlns:dc="http://purl.org/dc/elements/1.1/"
   xmlns:cc="http://creativecommons.org/ns#"
   xmlns:rdf="http://www.w3.org/1999/02/22-rdf-syntax-ns#"
   xmlns:svg="http://www.w3.org/2000/svg"
   xmlns="http://www.w3.org/2000/svg"
   xmlns:sodipodi="http://sodipodi.sourceforge.net/DTD/sodipodi-0.dtd"
   xmlns:inkscape="http://www.inkscape.org/namespaces/inkscape"
   version="1.0"
   width="10.999998"
   height="10.999998"
   id="svg2"
   sodipodi:docname="us-highway-hi.svg"
   inkscape:version="0.92.2 5c3e80d, 2017-08-06">
  <metadata
     id="metadata10">
    <rdf:RDF>
      <cc:Work
         rdf:about="">
        <dc:format>image/svg+xml</dc:format>
        <dc:type
           rdf:resource="http://purl.org/dc/dcmitype/StillImage" />
      </cc:Work>
    </rdf:RDF>
  </metadata>
  <sodipodi:namedview
     pagecolor="#ffffff"
     bordercolor="#666666"
     borderopacity="1"
     objecttolerance="10"
     gridtolerance="10"
     guidetolerance="10"
     inkscape:pageopacity="0"
     inkscape:pageshadow="2"
     inkscape:window-width="1199"
     inkscape:window-height="609"
     id="namedview8"
     showgrid="false"
     inkscape:zoom="25.173333"
     inkscape:cx="4.9551165"
     inkscape:cy="1.9880255"
     inkscape:window-x="0"
     inkscape:window-y="0"
     inkscape:window-maximized="0"
     inkscape:current-layer="svg2" />
  <defs
     id="defs4" />
  <path
     d="M 5.5312379,0.68756037 C 5.0059284,0.67511571 4.4967141,0.90915533 4.1595964,1.3145236 3.8012284,1.5851309 3.5375159,1.9628543 3.2128479,2.2610936 2.8863194,2.69748 2.5243208,3.1051216 2.2484176,3.578424 1.9778618,3.9035088 1.8450832,4.3010744 1.6166038,4.6421458 1.4147295,4.9970589 1.2661567,5.3905509 1.0781269,5.7484908 0.90733902,6.2585845 0.64225631,6.7561419 0.68749998,7.3129215 0.67778576,7.7633238 0.76220625,8.2074982 0.96245093,8.6063764 1.3347493,9.263883 1.958557,9.7960849 2.7107911,9.950017 c 0.5764674,0.165445 1.1681578,0.289546 1.7737336,0.302098 0.5085097,0.09182 1.0370424,0.07082 1.5498456,0.02622 C 6.4925094,10.229664 6.9493796,10.17781 7.4006337,10.079403 7.8322914,9.9808647 8.2705476,9.8567059 8.6850495,9.6797617 9.2609467,9.4154538 9.7226003,8.9267679 10.028003,8.3800643 10.197853,7.9686791 10.34704,7.5343643 10.309759,7.080376 10.334837,6.5907441 10.16608,6.1271217 9.9855038,5.6853105 9.7936073,5.257966 9.6427821,4.8063465 9.3714773,4.4176414 9.1128994,3.8277848 8.6896598,3.3347191 8.3342799,2.804466 8.0848971,2.5648824 7.8835763,2.2551683 7.6230092,2.0133498 7.3408171,1.6753932 6.995459,1.3955239 6.6596148,1.1042036 6.3361736,0.85262818 5.9552466,0.67257288 5.5312379,0.68756037 Z"
     style="opacity:1;fill:#ffffff;fill-opacity:1;stroke:#000000;stroke-width:0.312;stroke-miterlimit:4;stroke-dasharray:none;stroke-opacity:1"
     id="rect1955"
     inkscape:connector-curvature="0" />
</svg>
