<?xml version="1.0" encoding="UTF-8" standalone="no"?>
<!-- Generator: Adobe Illustrator 12.0.0, SVG Export Plug-In . SVG Version: 6.00 Build 51448)  -->

<svg
   xmlns:dc="http://purl.org/dc/elements/1.1/"
   xmlns:cc="http://creativecommons.org/ns#"
   xmlns:rdf="http://www.w3.org/1999/02/22-rdf-syntax-ns#"
   xmlns:svg="http://www.w3.org/2000/svg"
   xmlns="http://www.w3.org/2000/svg"
   xmlns:sodipodi="http://sodipodi.sourceforge.net/DTD/sodipodi-0.dtd"
   xmlns:inkscape="http://www.inkscape.org/namespaces/inkscape"
   version="1.1"
   id="Layer_1"
   width="10.88482"
   height="10.862156"
   viewBox="0 0 10.88482 10.862156"
   overflow="visible"
   enable-background="new 0 0 385 401"
   xml:space="preserve"
   sodipodi:docname="us-highway-state-ca-2.svg"
   inkscape:version="0.92.2 5c3e80d, 2017-08-06"
   style="overflow:visible"><metadata
     id="metadata63"><rdf:RDF><cc:Work
         rdf:about=""><dc:format>image/svg+xml</dc:format><dc:type
           rdf:resource="http://purl.org/dc/dcmitype/StillImage" /></cc:Work></rdf:RDF></metadata><defs
     id="defs61" /><sodipodi:namedview
     pagecolor="#ffffff"
     bordercolor="#666666"
     borderopacity="1"
     objecttolerance="10"
     gridtolerance="10"
     guidetolerance="10"
     inkscape:pageopacity="0"
     inkscape:pageshadow="2"
     inkscape:window-width="1280"
     inkscape:window-height="755"
     id="namedview59"
     showgrid="false"
     inkscape:zoom="18.832918"
     inkscape:cx="4.4724714"
     inkscape:cy="2.2974731"
     inkscape:window-x="0"
     inkscape:window-y="1"
     inkscape:window-maximized="1"
     inkscape:current-layer="Layer_1" /><g
     id="g56"
     transform="scale(0.02827226,0.02708767)"><g
       id="g6"><path
         d="M 0.5,262.01855 C 0.5,139.25635 81.230957,35.351562 192.5,0.5 c 111.26855,34.851562 192,138.75635 192,261.51855 v 63.64258 c 0,29.99317 -21.30371,55.01367 -49.60156,60.75977 l -0.18946,0.0381 -0.18652,0.0381 -0.1875,0.0371 C 288.41113,395.70117 241.01758,400.5 192.5,400.5 c -48.51855,0 -95.911133,-4.79883 -141.834961,-13.96582 l -0.1875,-0.0371 -0.186523,-0.0381 -0.189942,-0.0381 C 21.803711,380.6748 0.5,355.6543 0.5,325.66113 c 0,-34.24218 0,59.12012 0,-63.64258 z"
         id="path2"
         inkscape:connector-curvature="0"
         style="clip-rule:evenodd;fill:#ffffff;fill-rule:evenodd" /><path
         stroke-miterlimit="3.863693"
         d="M 0.5,262.01855 C 0.5,139.25635 81.230957,35.351562 192.5,0.5 c 111.26855,34.851562 192,138.75635 192,261.51855 v 63.64258 c 0,29.99317 -21.30371,55.01367 -49.60156,60.75977 l -0.18946,0.0381 -0.18652,0.0381 -0.1875,0.0371 C 288.41113,395.70117 241.01758,400.5 192.5,400.5 c -48.51855,0 -95.911133,-4.79883 -141.834961,-13.96582 l -0.1875,-0.0371 -0.186523,-0.0381 -0.189942,-0.0381 C 21.803711,380.6748 0.5,355.6543 0.5,325.66113 c 0,-34.24218 0,59.12012 0,-63.64258 z"
         id="path4"
         inkscape:connector-curvature="0"
         style="clip-rule:evenodd;fill:none;fill-rule:evenodd;stroke:#000000;stroke-linecap:round;stroke-linejoin:round;stroke-miterlimit:3.863693" /></g><g
       id="g10"><path
         d="m 192.5,13.103516 c 104.5498,34.419433 180,132.870114 180,248.915034 v 63.64258 c 0,24.17285 -17.16602,44.36524 -39.98242,48.99903 C 287.35449,383.67578 240.21484,388.5 192.5,388.5 144.78516,388.5 98.170898,383.78125 53.008301,374.76465 30.191406,370.13184 12.5,349.83398 12.5,325.66113 v -63.64258 c 0,-116.04492 75.450195,-214.495601 180,-248.915034 z"
         id="path8"
         inkscape:connector-curvature="0"
         style="clip-rule:evenodd;fill:#006b54;fill-rule:evenodd" /></g><g
       id="g54"><g
         id="g52"><g
           id="g14"><path
             d="m 80.844238,145.71875 c -0.109863,1.20508 -0.405761,2.36035 -0.887207,3.4668 -0.481445,1.10644 -1.089844,2.12304 -1.826172,3.05029 -0.735839,0.92725 -1.60205,1.75781 -2.598632,2.4917 -0.996094,0.73437 -2.064454,1.33203 -3.20459,1.79248 -1.881348,0.76025 -3.713379,1.08594 -5.497559,0.97803 -1.78418,-0.10791 -3.46582,-0.59766 -5.043945,-1.46826 -1.579102,-0.87061 -3.017578,-2.1128 -4.315918,-3.72706 -1.29834,-1.61328 -2.396973,-3.53222 -3.294922,-5.75488 -0.909668,-2.25195 -1.455078,-4.40185 -1.636231,-6.45019 -0.18164,-2.04883 -0.0039,-3.92774 0.532715,-5.63623 0.536133,-1.7085 1.411621,-3.21436 2.625489,-4.51709 1.214355,-1.30274 2.761718,-2.33399 4.643066,-3.09424 2.308594,-0.93262 4.675293,-1.25049 7.099121,-0.95362 2.424316,0.29688 4.601074,1.23243 6.530273,2.80762 l -3.547363,4.26758 c -0.640625,-0.4375 -1.153808,-0.74414 -1.540039,-0.91992 -0.38623,-0.1753 -0.830566,-0.31055 -1.333008,-0.40625 -0.754394,-0.22559 -1.605957,-0.30371 -2.55664,-0.23487 -0.949707,0.0688 -1.810059,0.25879 -2.57959,0.56983 -1.311035,0.5293 -2.290039,1.26465 -2.9375,2.20605 -0.647461,0.94141 -1.057617,1.97754 -1.230957,3.1084 -0.17334,1.13086 -0.145996,2.30469 0.08057,3.52295 0.226563,1.21826 0.564942,2.38281 1.013672,3.49463 1.266602,3.13477 2.861328,5.31738 4.783692,6.5459 1.922363,1.22949 3.966308,1.40625 6.132324,0.53125 0.655273,-0.26465 1.221191,-0.56787 1.696289,-0.90918 0.476074,-0.34131 0.908203,-0.74805 1.297851,-1.22022 0.389161,-0.47216 0.745118,-1.04736 1.06836,-1.72509 0.323242,-0.67725 0.660156,-1.48438 1.010742,-2.42237 z"
             id="path12"
             inkscape:connector-curvature="0"
             style="clip-rule:evenodd;fill:#ffffff;fill-rule:evenodd" /></g><g
           id="g18"><path
             d="m 111.65479,142.4165 -5.04053,-6.07714 -12.87549,3.93652 -0.73584,7.84326 -5.820801,1.7793 3.402344,-33.34473 5.379394,-1.64453 21.379393,25.76855 z m -16.129399,-19.32177 -1.097657,11.23291 8.289556,-2.53467 z"
             id="path16"
             inkscape:connector-curvature="0"
             style="clip-rule:evenodd;fill:#ffffff;fill-rule:evenodd" /></g><g
           id="g22"><polygon
             points="122.17725,108.63672 127.16553,134.30078 144.41016,130.94824 145.31641,135.61035 122.64014,140.01855 116.74512,109.69238 "
             id="polygon20"
             style="clip-rule:evenodd;fill:#ffffff;fill-rule:evenodd" /></g><g
           id="g26"><rect
             x="135.98618"
             y="116.73548"
             transform="rotate(82.999662,151.43286,119.50219)"
             width="30.893383"
             height="5.5334282"
             id="rect24"
             style="clip-rule:evenodd;fill:#ffffff;fill-rule:evenodd" /></g><g
           id="g30"><polygon
             points="184.9043,101.22168 185.29004,106.7417 167.85742,107.96094 168.29492,114.21631 177.9082,113.54395 178.30078,119.15576 168.68701,119.82812 169.62646,133.25879 164.01465,133.65137 161.85938,102.8335 "
             id="polygon28"
             style="clip-rule:evenodd;fill:#ffffff;fill-rule:evenodd" /></g><g
           id="g34"><path
             d="m 217.81641,117.52148 c -0.085,2.42676 -0.46192,4.62012 -1.12989,6.58106 -0.66797,1.96045 -1.58007,3.62793 -2.73535,5.00293 -1.15527,1.37402 -2.53711,2.42529 -4.14746,3.15381 -1.60937,0.72802 -3.39746,1.05761 -5.36328,0.98877 -2.27344,-0.0791 -4.21582,-0.61621 -5.82617,-1.61035 -1.61035,-0.99415 -2.92676,-2.27051 -3.94922,-3.82911 -1.02246,-1.5581 -1.75293,-3.30566 -2.19336,-5.24365 -0.43945,-1.93799 -0.62598,-3.87451 -0.55859,-5.81006 0.0859,-2.45752 0.46289,-4.65918 1.13086,-6.604 0.66699,-1.94531 1.59375,-3.58936 2.77832,-4.93213 1.18554,-1.34277 2.59765,-2.35449 4.23632,-3.03564 1.6377,-0.68116 3.47071,-0.98584 5.49903,-0.91504 1.90429,0.0664 3.62695,0.51074 5.16699,1.33349 1.53906,0.82324 2.85351,1.94532 3.94238,3.36719 1.08789,1.42285 1.90528,3.11963 2.45215,5.0918 0.5459,1.97265 0.77832,4.12597 0.69727,6.46093 z m -5.53516,-0.0552 c 0.11328,-3.25635 -0.42676,-5.82861 -1.62207,-7.71533 -1.19531,-1.8877 -2.95996,-2.87207 -5.29492,-2.95313 -2.33496,-0.082 -4.19434,0.77637 -5.58008,2.57324 -1.38574,1.79688 -2.13574,4.32422 -2.24902,7.58008 -0.11524,3.31836 0.45507,5.92188 1.71093,7.81104 1.25684,1.88916 3.05274,2.875 5.3877,2.95654 1.47461,0.0518 2.69141,-0.229 3.65137,-0.8418 0.95898,-0.6123 1.72558,-1.41601 2.29882,-2.41113 0.57227,-0.99512 0.98829,-2.11035 1.24707,-3.34717 0.25879,-1.23681 0.40821,-2.4541 0.4502,-3.65234 z"
             id="path32"
             inkscape:connector-curvature="0"
             style="clip-rule:evenodd;fill:#ffffff;fill-rule:evenodd" /></g><g
           id="g38"><path
             d="m 243.01074,136.44922 -3.24316,-12.70117 -8.17383,-1.14942 -1.6875,12.00928 -5.47949,-0.77002 4.2998,-30.59277 14.06348,1.97656 c 1.12598,0.1582 2.07226,0.38428 2.83789,0.67822 0.76562,0.29395 1.51074,0.73975 2.2334,1.33838 1.34961,0.99658 2.35058,2.27051 3.00195,3.8208 0.65039,1.5503 0.85449,3.19336 0.61133,4.92822 -0.24414,1.73536 -0.89941,3.25 -1.9668,4.54297 -1.06543,1.29395 -2.45019,2.25586 -4.15332,2.88526 l 3.77442,13.89404 z m 2.9834,-21.23145 c 0.16797,-1.1875 -0.0957,-2.18652 -0.78906,-2.99804 -0.69336,-0.81153 -1.72461,-1.31348 -3.09375,-1.50586 l -8.67578,-1.21973 -1.07227,7.62598 8.67578,1.21875 c 1.37012,0.19287 2.49903,0.002 3.38672,-0.57129 0.8877,-0.57373 1.41016,-1.42383 1.56836,-2.54981 z"
             id="path36"
             inkscape:connector-curvature="0"
             style="clip-rule:evenodd;fill:#ffffff;fill-rule:evenodd" /></g><g
           id="g42"><polygon
             points="286.9541,114.45801 279.47949,144.43359 274.82715,143.27344 265.69727,119.08984 260.55469,139.71484 255.27539,138.39844 262.75,108.42285 268.0293,109.73877 276.83398,132.93848 281.76367,113.16406 "
             id="polygon40"
             style="clip-rule:evenodd;fill:#ffffff;fill-rule:evenodd" /></g><g
           id="g46"><rect
             x="279.09622"
             y="130.11627"
             transform="rotate(108.00052,294.54295,132.88256)"
             width="30.893469"
             height="5.532599"
             id="rect44"
             style="clip-rule:evenodd;fill:#ffffff;fill-rule:evenodd" /></g><g
           id="g50"><path
             d="m 321.20801,159.229 -0.0928,-7.89502 -12.48339,-5.04345 -5.50782,5.63232 -5.64355,-2.28027 23.62891,-23.77295 5.21582,2.10693 0.39746,33.48047 z m -0.375,-25.16601 -7.92285,8.03808 8.03711,3.24756 z"
             id="path48"
             inkscape:connector-curvature="0"
             style="clip-rule:evenodd;fill:#ffffff;fill-rule:evenodd" /></g></g></g></g></svg>