<?xml version="1.0" encoding="UTF-8" standalone="no"?>
<!-- Generator: Adobe Illustrator 12.0.0, SVG Export Plug-In . SVG Version: 6.00 Build 51448)  -->

<svg
   xmlns:dc="http://purl.org/dc/elements/1.1/"
   xmlns:cc="http://creativecommons.org/ns#"
   xmlns:rdf="http://www.w3.org/1999/02/22-rdf-syntax-ns#"
   xmlns:svg="http://www.w3.org/2000/svg"
   xmlns="http://www.w3.org/2000/svg"
   xmlns:sodipodi="http://sodipodi.sourceforge.net/DTD/sodipodi-0.dtd"
   xmlns:inkscape="http://www.inkscape.org/namespaces/inkscape"
   version="1.1"
   id="Layer_1"
   width="12.316708"
   height="10.999999"
   viewBox="0 0 12.316708 10.999999"
   overflow="visible"
   enable-background="new 0 0 449 401"
   xml:space="preserve"
   sodipodi:docname="us-highway-state-ca-3.svg"
   style="overflow:visible"
   inkscape:version="0.92.2 5c3e80d, 2017-08-06"><metadata
     id="metadata63"><rdf:RDF><cc:Work
         rdf:about=""><dc:format>image/svg+xml</dc:format><dc:type
           rdf:resource="http://purl.org/dc/dcmitype/StillImage" /><dc:title /></cc:Work></rdf:RDF></metadata><defs
     id="defs61" /><sodipodi:namedview
     pagecolor="#ffffff"
     bordercolor="#666666"
     borderopacity="1"
     objecttolerance="10"
     gridtolerance="10"
     guidetolerance="10"
     inkscape:pageopacity="0"
     inkscape:pageshadow="2"
     inkscape:window-width="1280"
     inkscape:window-height="755"
     id="namedview59"
     showgrid="false"
     fit-margin-top="0"
     fit-margin-left="0"
     fit-margin-right="0"
     fit-margin-bottom="0"
     inkscape:zoom="13.316884"
     inkscape:cx="-7.0921955"
     inkscape:cy="2.9890635"
     inkscape:window-x="0"
     inkscape:window-y="1"
     inkscape:window-maximized="1"
     inkscape:current-layer="Layer_1" /><g
     id="g6"
     transform="scale(0.02743142)"><path
       style="clip-rule:evenodd;fill:#ffffff;fill-rule:evenodd"
       inkscape:connector-curvature="0"
       id="path2"
       d="M 0.5,256.2793 C 0.5,125.31396 98.078125,17.14209 224.5,0.5 c 126.42187,16.64209 224,124.81396 224,255.7793 v 66.18164 c 0,29.99609 -21.30078,55.0166 -49.60254,60.76074 l -0.17383,0.0352 -0.17285,0.0342 -0.17578,0.0351 -0.18359,0.0371 -0.1836,0.0352 -0.18164,0.0351 -0.18457,0.0352 C 341.57324,394.64258 283.70703,400.5 224.5,400.5 c -59.20703,0 -117.07324,-5.85742 -173.141602,-17.03125 l -0.184082,-0.0352 -0.182129,-0.0351 -0.183105,-0.0352 -0.18457,-0.0371 -0.174805,-0.0351 -0.17334,-0.0342 -0.173828,-0.0352 C 21.801269,377.47754 0.5,352.45703 0.5,322.46094 c 0,-34.24219 0,64.78515 0,-66.18164 z" /><path
       style="clip-rule:evenodd;fill:none;fill-rule:evenodd;stroke:#000000;stroke-linecap:round;stroke-linejoin:round;stroke-miterlimit:3.863693"
       inkscape:connector-curvature="0"
       id="path4"
       d="M 0.5,256.2793 C 0.5,125.31396 98.078125,17.14209 224.5,0.5 c 126.42187,16.64209 224,124.81396 224,255.7793 v 66.18164 c 0,29.99609 -21.30078,55.0166 -49.60254,60.76074 l -0.17383,0.0352 -0.17285,0.0342 -0.17578,0.0351 -0.18359,0.0371 -0.1836,0.0352 -0.18164,0.0351 -0.18457,0.0352 C 341.57324,394.64258 283.70703,400.5 224.5,400.5 c -59.20703,0 -117.07324,-5.85742 -173.141602,-17.03125 l -0.184082,-0.0352 -0.182129,-0.0351 -0.183105,-0.0352 -0.18457,-0.0371 -0.174805,-0.0351 -0.17334,-0.0342 -0.173828,-0.0352 C 21.801269,377.47754 0.5,352.45703 0.5,322.46094 c 0,-34.24219 0,64.78515 0,-66.18164 z"
       stroke-miterlimit="3.863693" /></g><g
     id="g10"
     transform="scale(0.02743142)"
     style="fill:#56ad75;fill-opacity:1"><path
       style="clip-rule:evenodd;fill:#56ad75;fill-rule:evenodd;fill-opacity:1"
       inkscape:connector-curvature="0"
       id="path8"
       d="m 224.5,12.608887 c 119.76855,16.549804 212,119.347163 212,243.670413 v 66.18164 c 0,24.17676 -17.1709,44.36914 -39.98926,49 C 341.20215,382.48437 282.9043,388.5 224.5,388.5 166.09521,388.5 108.96924,382.71484 53.660156,371.69238 30.850586,367.05469 12.5,346.63281 12.5,322.46094 V 256.2793 c 0,-124.32325 92.23145,-227.120609 212,-243.670413 z" /></g></svg>