<?xml version="1.0" encoding="UTF-8" standalone="no"?>
<svg
   xmlns:dc="http://purl.org/dc/elements/1.1/"
   xmlns:cc="http://creativecommons.org/ns#"
   xmlns:rdf="http://www.w3.org/1999/02/22-rdf-syntax-ns#"
   xmlns:svg="http://www.w3.org/2000/svg"
   xmlns="http://www.w3.org/2000/svg"
   xmlns:sodipodi="http://sodipodi.sourceforge.net/DTD/sodipodi-0.dtd"
   xmlns:inkscape="http://www.inkscape.org/namespaces/inkscape"
   version="1.0"
   width="13.621478"
   height="11"
   id="svg2"
   sodipodi:docname="us-highway-oh-3.svg"
   inkscape:version="0.92.2 5c3e80d, 2017-08-06">
  <metadata
     id="metadata14">
    <rdf:RDF>
      <cc:Work
         rdf:about="">
        <dc:format>image/svg+xml</dc:format>
        <dc:type
           rdf:resource="http://purl.org/dc/dcmitype/StillImage" />
      </cc:Work>
    </rdf:RDF>
  </metadata>
  <sodipodi:namedview
     pagecolor="#ffffff"
     bordercolor="#666666"
     borderopacity="1"
     objecttolerance="10"
     gridtolerance="10"
     guidetolerance="10"
     inkscape:pageopacity="0"
     inkscape:pageshadow="2"
     inkscape:window-width="1280"
     inkscape:window-height="755"
     id="namedview12"
     showgrid="false"
     inkscape:zoom="22.627417"
     inkscape:cx="4.5794974"
     inkscape:cy="5.9115494"
     inkscape:window-x="0"
     inkscape:window-y="1"
     inkscape:window-maximized="1"
     inkscape:current-layer="svg2" />
  <defs
     id="defs4" />
  <g
     id="g5306"
     transform="matrix(89.936287,0,0,90.30595,49.964508,-2206.4638)"
     style="color-interpolation:linearRGB;color-interpolation-filters:linearRGB">
    <path
       class="whitefill"
       d="m -0.50642399,24.439182 a 0.0040572,0.0040572 0 0 1 0.001512,2.83e-4 0.02338661,0.02338661 0 0 1 0.004552,0.0024 0.00400706,0.00400706 0 0 0 0.003102,5.99e-4 l 0.0112973,-0.0025 a 0.00401436,0.00401436 0 0 1 0.002762,3.91e-4 l 0.003096,0.0017 a 0.00450995,0.00450995 0 0 0 0.002214,5.41e-4 0.03641893,0.03641893 0 0 0 0.009298,-0.0014 0.00373687,0.00373687 0 0 1 0.002999,4.33e-4 0.01160981,0.01160981 0 0 0 0.003905,0.0016 0.00704047,0.00704047 0 0 1 0.00249,0.001 0.00984945,0.00984945 0 0 0 0.005348,0.0016 0.00458395,0.00458395 0 0 0 0.002121,-5.05e-4 0.0224446,0.0224446 0 0 1 0.009198,-0.0025 0.03870701,0.03870701 0 0 0 0.004904,-5.45e-4 0.02622042,0.02622042 0 0 1 0.006484,-3.27e-4 0.03186175,0.03186175 0 0 0 0.0162386,-0.0031 l 0.005771,-0.0028 a 0.00162259,0.00162259 0 0 1 0.00233,0.0015 v 0.04748 a 0.00162259,0.00162259 0 0 1 -7.721e-4,0.0014 0.00345549,0.00345549 0 0 0 -0.001418,0.0042 0.00727415,0.00727415 0 0 1 -2.4438e-4,0.0057 0.00884026,0.00884026 0 0 0 -8.3783e-4,0.003 l -0.001125,0.01251 a 0.00700347,0.00700347 0 0 1 -0.001682,0.004 l -0.008134,0.0094 a 0.06795402,0.06795402 0 0 1 -0.0114384,0.0105 0.02949919,0.02949919 0 0 1 -0.009717,0.0046 0.02035369,0.02035369 0 0 0 -0.0108285,0.0072 0.00486582,0.00486582 0 0 1 -0.004114,0.0019 0.0050552,0.0050552 0 0 0 -0.002829,6.82e-4 0.00661498,0.00661498 0 0 1 -0.002749,8.77e-4 0.00955833,0.00955833 0 0 0 -0.002489,5.64e-4 0.00384787,0.00384787 0 0 1 -0.002754,-2.6e-5 0.0055761,0.0055761 0 0 0 -0.002115,-3.88e-4 0.02241734,0.02241734 0 0 0 -0.005413,7.35e-4 0.0068803,0.0068803 0 0 1 -0.001757,2.25e-4 0.00846833,0.00846833 0 0 0 -0.002357,3.31e-4 0.009127,0.009127 0 0 1 -0.002711,3.56e-4 l -0.006716,-1.35e-4 a 0.01186783,0.01186783 0 0 1 -0.007058,-0.0025 0.05690113,0.05690113 0 0 0 -0.010015,-0.0063 0.02061316,0.02061316 0 0 0 -0.0115986,-0.0019 0.0144037,0.0144037 0 0 1 -0.00416,-8.6e-5 0.01567189,0.01567189 0 0 0 -0.003381,-1.95e-4 0.0069728,0.0069728 0 0 1 -0.002325,-2.75e-4 0.01034309,0.01034309 0 0 0 -0.002003,-3.81e-4 0.01295102,0.01295102 0 0 1 -0.007053,-0.0029 l -0.007544,-0.0062 a 0.00601229,0.00601229 0 0 0 -0.002126,-0.0011 l -0.005415,-0.0016 a 0.00162259,0.00162259 0 0 1 -0.001168,-0.0016 v -0.08465 a 0.00365119,0.00365119 0 0 1 0.003629,-0.0037 z"
       id="path5308"
       style="color-interpolation:linearRGB;color-interpolation-filters:linearRGB;fill:#ffffff;stroke:#000000;stroke-width:0.00540917;stroke-miterlimit:4;stroke-dasharray:none;stroke-opacity:1"
       inkscape:connector-curvature="0" />
    <!-- <rect
	x="0"
	y="5"
	width="30"
	height="12"
	class="textblock"
/> -->
  </g>
</svg>
