<?xml version="1.0" encoding="UTF-8" standalone="no"?>
<!-- Generator: Adobe Illustrator 12.0.0, SVG Export Plug-In . SVG Version: 6.00 Build 51448)  -->

<svg
   xmlns:dc="http://purl.org/dc/elements/1.1/"
   xmlns:cc="http://creativecommons.org/ns#"
   xmlns:rdf="http://www.w3.org/1999/02/22-rdf-syntax-ns#"
   xmlns:svg="http://www.w3.org/2000/svg"
   xmlns="http://www.w3.org/2000/svg"
   xmlns:sodipodi="http://sodipodi.sourceforge.net/DTD/sodipodi-0.dtd"
   xmlns:inkscape="http://www.inkscape.org/namespaces/inkscape"
   version="1.1"
   id="Layer_1"
   width="10.999998"
   height="10.999998"
   viewBox="0 0 10.999998 10.999998"
   overflow="visible"
   enable-background="new 0 0 385 385"
   xml:space="preserve"
   sodipodi:version="0.32"
   inkscape:version="0.92.2 5c3e80d, 2017-08-06"
   sodipodi:docname="us-highway-state-square-2.svg"
   style="overflow:visible"><metadata
     id="metadata78"><rdf:RDF><cc:Work
         rdf:about=""><dc:format>image/svg+xml</dc:format><dc:type
           rdf:resource="http://purl.org/dc/dcmitype/StillImage" /></cc:Work></rdf:RDF></metadata><defs
     id="defs76" /><sodipodi:namedview
     inkscape:window-height="651"
     inkscape:window-width="1082"
     inkscape:pageshadow="2"
     inkscape:pageopacity="0.0"
     guidetolerance="10.0"
     gridtolerance="10.0"
     objecttolerance="10.0"
     borderopacity="1.0"
     bordercolor="#666666"
     pagecolor="#ffffff"
     id="base"
     inkscape:zoom="0.97922078"
     inkscape:cx="55.959904"
     inkscape:cy="151.65119"
     inkscape:window-x="22"
     inkscape:window-y="29"
     inkscape:current-layer="Layer_1"
     showgrid="false"
     inkscape:window-maximized="0" /><g
     id="g19"
     transform="matrix(0.02963364,0,0,0.02963364,-0.20446922,-0.20446922)"><g
       id="g21"><path
         inkscape:connector-curvature="0"
         id="path23"
         d="M 6.8999023,24.5 C 6.8999023,14.779785 14.779785,6.8999023 24.5,6.8999023 h 336 c 9.7207,0 17.59961,7.8798827 17.59961,17.6000977 v 336 c 0,9.7207 -7.87891,17.59961 -17.59961,17.59961 h -336 c -9.720215,0 -17.6000977,-7.87891 -17.6000977,-17.59961 z" /><path
         inkscape:connector-curvature="0"
         id="path25"
         d="M 192.5,192.5" /></g></g><g
     id="g27"
     transform="matrix(0.02963364,0,0,0.02963364,-0.20446922,-0.20446922)"><g
       id="g29"><path
         style="fill:#ffffff"
         inkscape:connector-curvature="0"
         id="path31"
         d="m 16.5,24.5 c 0,-4.418457 3.581543,-8 8,-8 h 336 c 4.41797,0 8,3.581543 8,8 v 336 c 0,4.41797 -3.58203,8 -8,8 h -336 c -4.418457,0 -8,-3.58203 -8,-8 z" /><path
         style="fill:#ffffff"
         inkscape:connector-curvature="0"
         id="path33"
         d="M 192.5,192.5" /></g></g></svg>