<?xml version="1.0" encoding="UTF-8" standalone="no"?>
<!-- Created with Inkscape (http://www.inkscape.org/) -->

<svg
   xmlns:dc="http://purl.org/dc/elements/1.1/"
   xmlns:cc="http://creativecommons.org/ns#"
   xmlns:rdf="http://www.w3.org/1999/02/22-rdf-syntax-ns#"
   xmlns:svg="http://www.w3.org/2000/svg"
   xmlns="http://www.w3.org/2000/svg"
   xmlns:sodipodi="http://sodipodi.sourceforge.net/DTD/sodipodi-0.dtd"
   xmlns:inkscape="http://www.inkscape.org/namespaces/inkscape"
   version="1.0"
   width="13.748855"
   height="10.999982"
   id="svg2"
   sodipodi:docname="us-highway-md-3.svg"
   inkscape:version="0.92.2 5c3e80d, 2017-08-06">
  <metadata
     id="metadata14">
    <rdf:RDF>
      <cc:Work
         rdf:about="">
        <dc:format>image/svg+xml</dc:format>
        <dc:type
           rdf:resource="http://purl.org/dc/dcmitype/StillImage" />
      </cc:Work>
    </rdf:RDF>
  </metadata>
  <sodipodi:namedview
     pagecolor="#ffffff"
     bordercolor="#666666"
     borderopacity="1"
     objecttolerance="10"
     gridtolerance="10"
     guidetolerance="10"
     inkscape:pageopacity="0"
     inkscape:pageshadow="2"
     inkscape:window-width="1280"
     inkscape:window-height="755"
     id="namedview12"
     showgrid="false"
     inkscape:zoom="32"
     inkscape:cx="5.2808281"
     inkscape:cy="7.8585798"
     inkscape:window-x="0"
     inkscape:window-y="1"
     inkscape:window-maximized="1"
     inkscape:current-layer="svg2" />
  <defs
     id="defs4" />
  <g
     id="layer1"
     transform="matrix(0.00458142,0,0,0.00458142,0.00229071,0.00229071)" />
  <path
     d="m 0.00229071,0.91859071 c 0,-0.5061 0.41023472,-0.9163 0.91628488,-0.9163 H 12.830279 c 0.50605,0 0.916285,0.4102 0.916285,0.9163 V 10.081391 c 0,0.5061 -0.410235,0.9163 -0.916285,0.9163 H 0.91857559 c -0.50605016,0 -0.91628488,-0.4102 -0.91628488,-0.9163 z"
     style="fill:#ffffff;fill-opacity:1;fill-rule:evenodd;stroke:#000000;stroke-width:0.00458142;stroke-linecap:butt;stroke-linejoin:miter;stroke-opacity:1"
     id="path1407"
     inkscape:connector-curvature="0" />
  <path
     d="m 0.23136193,0.91859071 c 0,-0.3796 0.30767605,-0.6872 0.68721366,-0.6872 H 12.830279 c 0.379538,0 0.687214,0.3076 0.687214,0.6872 V 10.081391 c 0,0.3796 -0.307676,0.6872 -0.687214,0.6872 H 0.91857559 c -0.37953761,0 -0.68721366,-0.3076 -0.68721366,-0.6872 z"
     style="fill:#000000;fill-opacity:1;fill-rule:evenodd;stroke:#000000;stroke-width:0.00458142px;stroke-linecap:butt;stroke-linejoin:miter;stroke-opacity:1"
     id="path1341"
     inkscape:connector-curvature="0" />
  <path
     d="M 0.91857559,0.46039071 H 12.830279 c 0.253025,0 0.458142,0.2052 0.458142,0.4582 V 3.3237907 H 0.46043315 V 0.91859071 c 0,-0.253 0.20511738,-0.4582 0.45814244,-0.4582 z"
     style="fill:#ffffff;fill-opacity:1;fill-rule:evenodd;stroke:#000000;stroke-width:0.00458142px;stroke-linecap:butt;stroke-linejoin:miter;stroke-opacity:1"
     id="path10350"
     inkscape:connector-curvature="0" />
  <path
     d="M 0.46043315,3.8964907 H 13.288421 v 6.1849003 c 0,0.253 -0.205117,0.4582 -0.458142,0.4582 H 0.91857559 c -0.25302506,0 -0.45814244,-0.2052 -0.45814244,-0.4582 z"
     style="fill:#ffffff;fill-opacity:1;fill-rule:evenodd;stroke:#000000;stroke-width:0.00458142px;stroke-linecap:butt;stroke-linejoin:miter;stroke-opacity:1"
     id="path1343"
     inkscape:connector-curvature="0" />
</svg>
