<?xml version="1.0" encoding="UTF-8" standalone="no"?>
<!-- Created with Inkscape (http://www.inkscape.org/) -->

<svg
   xmlns:dc="http://purl.org/dc/elements/1.1/"
   xmlns:cc="http://creativecommons.org/ns#"
   xmlns:rdf="http://www.w3.org/1999/02/22-rdf-syntax-ns#"
   xmlns:svg="http://www.w3.org/2000/svg"
   xmlns="http://www.w3.org/2000/svg"
   xmlns:sodipodi="http://sodipodi.sourceforge.net/DTD/sodipodi-0.dtd"
   xmlns:inkscape="http://www.inkscape.org/namespaces/inkscape"
   width="11"
   height="11"
   id="svg2"
   sodipodi:version="0.32"
   inkscape:version="0.92.2 5c3e80d, 2017-08-06"
   version="1.0"
   sodipodi:docname="us-highway-az-2.svg">
  <defs
     id="defs4" />
  <sodipodi:namedview
     id="base"
     pagecolor="#ffffff"
     bordercolor="#666666"
     borderopacity="1.0"
     inkscape:pageopacity="0.0"
     inkscape:pageshadow="2"
     inkscape:zoom="21.36"
     inkscape:cx="-4.3496029"
     inkscape:cy="5.3209362"
     inkscape:document-units="px"
     inkscape:current-layer="layer1"
     inkscape:window-width="1280"
     inkscape:window-height="756"
     inkscape:window-x="-4"
     inkscape:window-y="0"
     showgrid="false"
     inkscape:window-maximized="0" />
  <metadata
     id="metadata7">
    <rdf:RDF>
      <cc:Work
         rdf:about="">
        <dc:format>image/svg+xml</dc:format>
        <dc:type
           rdf:resource="http://purl.org/dc/dcmitype/StillImage" />
      </cc:Work>
    </rdf:RDF>
  </metadata>
  <g
     inkscape:label="Layer 1"
     inkscape:groupmode="layer"
     id="layer1"
     transform="translate(0,-589)">
    <path
       d=""
       id="path7"
       inkscape:connector-curvature="0"
       style="stroke-width:0.01833333" />
    <path
       style="fill:none;stroke:#000000;stroke-width:0.01833333;stroke-opacity:1"
       d="m 6.8676304,599.64335 c -8.738e-4,-0.002 -1.4665046,-0.33831 -3.2569559,-0.74722 l -3.25536599,-0.74347 -0.001198,-3.66086 -0.001198,-3.66085 0.85943659,10e-4 0.8594385,10e-4 v -0.74024 -0.74024 h 4.2864528 4.2864546 l 0.0012,5.14709 0.0012,5.14709 H 8.7581538 c -1.0389139,0 -1.8896499,-0.002 -1.8905234,-0.004 z"
       id="path3281"
       inkscape:connector-curvature="0" />
    <path
       style="fill:#ffffff;fill-opacity:1;stroke:#000000;stroke-width:0.3;stroke-opacity:1;stroke-miterlimit:4;stroke-dasharray:none"
       d="m 6.8700649,599.6525 c -8.753e-4,-0.002 -1.4691151,-0.3389 -3.2627537,-0.74854 l -3.26116105,-0.7448 -0.0012,-3.66737 -0.0012,-3.66737 0.86096645,10e-4 0.8609685,10e-4 v -0.74156 -0.74155 h 4.2940832 4.2940847 l 0.0012,5.15625 0.0012,5.15625 H 8.7639537 c -1.0407631,0 -1.8930136,-0.002 -1.8938888,-0.004 z"
       id="path4166"
       inkscape:connector-curvature="0" />
  </g>
</svg>
