<?xml version="1.0" encoding="UTF-8" standalone="no"?>
<!-- Generator: Adobe Illustrator 12.0.0, SVG Export Plug-In . SVG Version: 6.00 Build 51448)  -->

<svg
   xmlns:dc="http://purl.org/dc/elements/1.1/"
   xmlns:cc="http://creativecommons.org/ns#"
   xmlns:rdf="http://www.w3.org/1999/02/22-rdf-syntax-ns#"
   xmlns:svg="http://www.w3.org/2000/svg"
   xmlns="http://www.w3.org/2000/svg"
   xmlns:sodipodi="http://sodipodi.sourceforge.net/DTD/sodipodi-0.dtd"
   xmlns:inkscape="http://www.inkscape.org/namespaces/inkscape"
   version="1.1"
   id="Layer_1"
   width="11"
   height="11"
   viewBox="0 0 11 11"
   overflow="visible"
   enable-background="new 0 0 384 384"
   xml:space="preserve"
   inkscape:version="0.92.2 5c3e80d, 2017-08-06"
   sodipodi:docname="us-highway-2.svg"
   style="overflow:visible"><metadata
     id="metadata5470"><rdf:RDF><cc:Work
         rdf:about=""><dc:format>image/svg+xml</dc:format><dc:type
           rdf:resource="http://purl.org/dc/dcmitype/StillImage" /><dc:title></dc:title></cc:Work></rdf:RDF></metadata><defs
     id="defs5468" /><sodipodi:namedview
     pagecolor="#ffffff"
     bordercolor="#666666"
     borderopacity="1"
     objecttolerance="10"
     gridtolerance="10"
     guidetolerance="10"
     inkscape:pageopacity="0"
     inkscape:pageshadow="2"
     inkscape:window-width="1280"
     inkscape:window-height="755"
     id="namedview5466"
     showgrid="false"
     inkscape:zoom="27.812867"
     inkscape:cx="4.0445971"
     inkscape:cy="4.5597113"
     inkscape:window-x="0"
     inkscape:window-y="1"
     inkscape:window-maximized="1"
     inkscape:current-layer="Layer_1" /><g
     id="g5446"
     transform="matrix(0.02864583,0,0,0.02864583,-4.153746e-6,4.5058196e-6)"><path
       style="clip-rule:evenodd;fill:#ffffff;fill-rule:evenodd"
       inkscape:connector-curvature="0"
       id="path5448"
       d="M 192,0.003418 C 177.13184,14.054688 157.07227,22.669922 135,22.669922 112.92676,22.669922 92.868164,14.052246 78,0 L 0,80.771484 c 19.416016,14.393067 32,37.479006 32,63.504396 0,16.48779 -5.051758,31.79736 -13.69043,44.46289 C 6.793457,205.58789 0,226.05078 0,248 c 0,57.78711 46.680176,104.66992 104.39063,104.99805 33.27783,0 63.58496,11.61132 87.60937,31.00195 24.02441,-19.39063 54.33203,-31.00195 87.60937,-31.00195 C 337.31934,352.66992 384,305.78711 384,248 384,226.05078 377.20703,205.58789 365.69043,188.73877 357.05176,176.07324 352,160.76367 352,144.27588 352,118.25049 364.58398,95.164551 384,80.771484 L 306,0 c -14.86816,14.052246 -34.92676,22.669922 -57,22.669922 -22.07227,0 -42.13184,-8.615234 -57,-22.666504 z" /><path
       style="clip-rule:evenodd;fill:none;fill-rule:evenodd;stroke:#000000;stroke-width:0;stroke-linecap:round;stroke-linejoin:round;stroke-miterlimit:3.863693"
       inkscape:connector-curvature="0"
       id="path5450"
       d="M 192,0.003418 C 177.13184,14.054688 157.07227,22.669922 135,22.669922 112.92676,22.669922 92.868164,14.052246 78,0 L 0,80.771484 c 19.416016,14.393067 32,37.479006 32,63.504396 0,16.48779 -5.051758,31.79736 -13.69043,44.46289 C 6.793457,205.58789 0,226.05078 0,248 c 0,57.78711 46.680176,104.66992 104.39063,104.99805 33.27783,0 63.58496,11.61132 87.60937,31.00195 24.02441,-19.39063 54.33203,-31.00195 87.60937,-31.00195 C 337.31934,352.66992 384,305.78711 384,248 384,226.05078 377.20703,205.58789 365.69043,188.73877 357.05176,176.07324 352,160.76367 352,144.27588 352,118.25049 364.58398,95.164551 384,80.771484 L 306,0 c -14.86816,14.052246 -34.92676,22.669922 -57,22.669922 -22.07227,0 -42.13184,-8.615234 -57,-22.666504 z"
       stroke-miterlimit="3.863693" /></g><g
     id="g5452"
     transform="matrix(0.02864583,0,0,0.02864583,-4.153746e-6,4.5058196e-6)"><path
       style="clip-rule:evenodd;fill-rule:evenodd"
       inkscape:connector-curvature="0"
       id="path5454"
       d="m 303.87207,28.027344 50.36621,52.155761 C 339.74805,97.525391 331,119.88574 331,144.27588 c 0,20.84326 6.40527,40.26269 17.34766,56.3042 C 357.56543,214.06836 363,230.43164 363,248 c 0,46.22949 -37.34375,83.73633 -83.50977,83.99902 C 247.12109,332.02148 217.1582,341.61621 192,358.06055 166.81152,341.5957 136.80469,331.99805 104.39063,331.99805 58.279785,331.67285 21,294.19043 21,248 21,230.43262 26.43457,214.06836 35.652344,200.58008 46.594238,184.53857 53,165.11914 53,144.27588 53,119.88525 44.252441,97.525391 29.761719,80.183106 L 80.12793,28.027344 C 96.056641,37.936523 114.87451,43.669922 135,43.669922 c 21.02832,0 40.62988,-6.258789 57,-17 16.37012,10.741211 35.97168,17 57,17 20.12598,0 38.94336,-5.733399 54.87207,-15.642578 z M 249,31.669922 c 21.25488,0 40.83789,-7.217774 56.41211,-19.322266 l 65.40332,67.726563 C 353.70605,96.120117 343,118.94775 343,144.27588 c 0,18.35449 5.63184,35.42529 15.25781,49.5376 C 368.78906,209.22266 375,227.92773 375,248 c 0,52.83398 -42.67871,95.69922 -95.44141,95.99805 C 246.71582,344.00977 216.57715,354.6543 192,372.65039 167.41064,354.64551 137.25244,343.99805 104.39062,343.99805 51.651367,343.67187 9,300.81641 9,248 9,227.92773 15.210938,209.22266 25.742187,193.81348 35.368164,179.70117 41,162.63037 41,144.27588 41,118.94775 30.293457,96.120117 13.18457,80.074219 L 78.587891,12.347656 C 94.162598,24.452148 113.74512,31.669922 135,31.669922 c 21.52197,0 41.33105,-7.398926 57,-19.780273 15.66895,12.381347 35.47754,19.780273 57,19.780273 z" /></g></svg>