<?xml version="1.0" encoding="UTF-8" standalone="no"?>
<!-- Created with Inkscape (http://www.inkscape.org/) -->

<svg
   xmlns:dc="http://purl.org/dc/elements/1.1/"
   xmlns:cc="http://creativecommons.org/ns#"
   xmlns:rdf="http://www.w3.org/1999/02/22-rdf-syntax-ns#"
   xmlns:svg="http://www.w3.org/2000/svg"
   xmlns="http://www.w3.org/2000/svg"
   xmlns:sodipodi="http://sodipodi.sourceforge.net/DTD/sodipodi-0.dtd"
   xmlns:inkscape="http://www.inkscape.org/namespaces/inkscape"
   version="1.0"
   width="11"
   height="13.75"
   id="svg2"
   inkscape:version="0.92.2 5c3e80d, 2017-08-06"
   sodipodi:docname="us-highway-dc.svg">
  <metadata
     id="metadata3602">
    <rdf:RDF>
      <cc:Work
         rdf:about="">
        <dc:format>image/svg+xml</dc:format>
        <dc:type
           rdf:resource="http://purl.org/dc/dcmitype/StillImage" />
        <dc:title />
      </cc:Work>
    </rdf:RDF>
  </metadata>
  <sodipodi:namedview
     pagecolor="#ffffff"
     bordercolor="#666666"
     borderopacity="1"
     objecttolerance="10"
     gridtolerance="10"
     guidetolerance="10"
     inkscape:pageopacity="0"
     inkscape:pageshadow="2"
     inkscape:window-width="1280"
     inkscape:window-height="755"
     id="namedview3600"
     showgrid="false"
     inkscape:zoom="0.31466667"
     inkscape:cx="299.99979"
     inkscape:cy="375.00002"
     inkscape:window-x="0"
     inkscape:window-y="1"
     inkscape:window-maximized="1"
     inkscape:current-layer="layer1" />
  <defs
     id="defs4">
    <inkscape:perspective
       sodipodi:type="inkscape:persp3d"
       inkscape:vp_x="0 : 375 : 1"
       inkscape:vp_y="0 : 1000 : 0"
       inkscape:vp_z="600 : 375 : 1"
       inkscape:persp3d-origin="300 : 250 : 1"
       id="perspective3604" />
  </defs>
  <g
     id="layer1"
     transform="translate(-2.0825933e-4,-736.25002)">
    <rect
       width="10.994909"
       height="13.744909"
       rx="0.6875"
       ry="0.6875"
       x="0.0027534943"
       y="736.25256"
       style="opacity:1;fill:#ffffff;fill-opacity:1;stroke:#000000;stroke-width:0.00509047;stroke-miterlimit:4;stroke-dasharray:none;stroke-opacity:1"
       id="rect2029" />
    <rect
       width="10.65625"
       height="13.40625"
       rx="0.515625"
       ry="0.46084508"
       x="0.17208219"
       y="736.42188"
       style="opacity:1;fill:#000000;fill-opacity:1;stroke:none;stroke-width:0.01833333;stroke-miterlimit:4;stroke-dasharray:none;stroke-opacity:1"
       id="rect4704" />
    <rect
       width="10.083333"
       height="12.833333"
       rx="0.22916666"
       ry="0.22916666"
       x="0.4585405"
       y="736.70831"
       style="opacity:1;fill:#ffffff;fill-opacity:1;stroke:none;stroke-width:0.01833333;stroke-miterlimit:4;stroke-dasharray:none;stroke-opacity:1"
       id="rect5591" />
    <path
       d="m 4.3212467,736.69887 -3.81671246,4.1052 0.61526686,0.68082 c 0.1523094,0.19172 0.6227324,0.67238 0.6580621,0.67238 0.013217,0 0.06841,0.0305 0.1226517,0.0677 0.1196749,0.0822 0.2938683,0.15397 0.452505,0.18654 0.2858263,0.0587 0.6184548,0.15339 0.6865138,0.19546 0.040705,0.0252 0.090086,0.0457 0.109736,0.0457 0.054906,0 0.2312215,0.18887 0.2461921,0.26372 l 0.013314,0.0666 H 3.6421997 3.875623 l -0.015641,-0.0649 c -0.052271,-0.21681 -0.2879681,-0.52899 -0.4252074,-0.56317 -0.037007,-0.009 -0.1394855,-0.0465 -0.2277302,-0.0828 -0.088245,-0.0363 -0.1970641,-0.0729 -0.2418215,-0.0813 -0.2033452,-0.0678 -0.5605935,-0.14111 -0.6258629,-0.1779 -0.2071465,-0.0316 -0.6804474,-0.5045 -0.6804474,-0.5045 -0.1790224,-0.21663 -0.3771296,-0.41593 -0.5648603,-0.6247 0,0 3.3924618,-3.65113 3.3924618,-3.65113 0,0 5.3892605,4.94992 5.3892605,4.94992 l -0.4041217,0.51356 0.3613301,0.28717 0.662897,-0.84045 -5.8881826,-5.4447 -0.2864506,7.2e-4 -0.1398221,12.85298 m 0.4514761,-0.005 -0.025203,-12.84858 m -0.4262727,12.8537 -0.00172,-0.0869 c -9.477e-4,-0.0422 -0.010571,-0.12976 -0.021387,-0.19464 -0.010815,-0.0649 -0.037927,-0.23474 -0.060249,-0.37747 -0.018143,-0.13859 -0.022411,-0.20372 -0.052717,-0.33917 -0.016396,-0.0659 -0.076256,-0.24556 -0.1081526,-0.31433 -0.1719461,-0.37076 -0.1804345,-0.3966 -0.1804345,-0.5493 0,-0.0833 0.00926,-0.17593 0.020575,-0.20573 0.011317,-0.0298 0.034045,-0.0967 0.05051,-0.14857 0.015786,-0.0558 0.063181,-0.10497 0.094541,-0.17398 0.03136,-0.069 0.046683,-0.15786 0.046705,-0.15802 1.591e-4,1.7e-4 0.05115,1e-4 0.2595156,1e-4 0.2592383,0 0.2595357,0 0.2595157,2e-5 -5.47e-5,10e-5 -0.034854,0.20884 -0.1507638,0.36629 -0.1281108,0.17402 -0.1540954,0.29401 -0.097344,0.44948 0.021264,0.0583 0.049764,0.14308 0.063333,0.18849 0.013569,0.0454 0.053808,0.14153 0.089421,0.21359 0.041251,0.0835 0.070627,0.19049 0.080945,0.2949 0.00891,0.0901 0.029538,0.21612 0.045848,0.27995 l 0.034154,0.13642 c 0,0 1.5227798,-1.92844 1.5227798,-1.92844 l 0.3517545,0.27887 c 0,0 -1.7953501,2.26328 -1.7953501,2.26328"
       style="fill:#000000;stroke-width:0.01833333"
       id="path2026"
       inkscape:connector-curvature="0" />
  </g>
</svg>
