<?xml version="1.0" encoding="UTF-8" standalone="no"?>
<!-- Generator: Adobe Illustrator 12.0.0, SVG Export Plug-In . SVG Version: 6.00 Build 51448)  -->

<svg
   xmlns:dc="http://purl.org/dc/elements/1.1/"
   xmlns:cc="http://creativecommons.org/ns#"
   xmlns:rdf="http://www.w3.org/1999/02/22-rdf-syntax-ns#"
   xmlns:svg="http://www.w3.org/2000/svg"
   xmlns="http://www.w3.org/2000/svg"
   xmlns:sodipodi="http://sodipodi.sourceforge.net/DTD/sodipodi-0.dtd"
   xmlns:inkscape="http://www.inkscape.org/namespaces/inkscape"
   version="1.1"
   id="Layer_1"
   width="10.88482"
   height="10.862156"
   viewBox="0 0 10.88482 10.862156"
   overflow="visible"
   enable-background="new 0 0 385 401"
   xml:space="preserve"
   sodipodi:docname="us-highway-state-ca-2.svg"
   inkscape:version="0.92.2 5c3e80d, 2017-08-06"
   style="overflow:visible"><metadata
     id="metadata63"><rdf:RDF><cc:Work
         rdf:about=""><dc:format>image/svg+xml</dc:format><dc:type
           rdf:resource="http://purl.org/dc/dcmitype/StillImage" /></cc:Work></rdf:RDF></metadata><defs
     id="defs61" /><sodipodi:namedview
     pagecolor="#ffffff"
     bordercolor="#666666"
     borderopacity="1"
     objecttolerance="10"
     gridtolerance="10"
     guidetolerance="10"
     inkscape:pageopacity="0"
     inkscape:pageshadow="2"
     inkscape:window-width="1280"
     inkscape:window-height="755"
     id="namedview59"
     showgrid="false"
     inkscape:zoom="18.832918"
     inkscape:cx="-5.0852615"
     inkscape:cy="2.2974731"
     inkscape:window-x="0"
     inkscape:window-y="1"
     inkscape:window-maximized="1"
     inkscape:current-layer="Layer_1" /><g
     id="g6"
     transform="scale(0.02827226,0.02708767)"><path
       style="clip-rule:evenodd;fill:#ffffff;fill-rule:evenodd"
       inkscape:connector-curvature="0"
       id="path2"
       d="M 0.5,262.01855 C 0.5,139.25635 81.230957,35.351562 192.5,0.5 c 111.26855,34.851562 192,138.75635 192,261.51855 v 63.64258 c 0,29.99317 -21.30371,55.01367 -49.60156,60.75977 l -0.18946,0.0381 -0.18652,0.0381 -0.1875,0.0371 C 288.41113,395.70117 241.01758,400.5 192.5,400.5 c -48.51855,0 -95.911133,-4.79883 -141.834961,-13.96582 l -0.1875,-0.0371 -0.186523,-0.0381 -0.189942,-0.0381 C 21.803711,380.6748 0.5,355.6543 0.5,325.66113 c 0,-34.24218 0,59.12012 0,-63.64258 z" /><path
       style="clip-rule:evenodd;fill:none;fill-rule:evenodd;stroke:#000000;stroke-linecap:round;stroke-linejoin:round;stroke-miterlimit:3.863693"
       inkscape:connector-curvature="0"
       id="path4"
       d="M 0.5,262.01855 C 0.5,139.25635 81.230957,35.351562 192.5,0.5 c 111.26855,34.851562 192,138.75635 192,261.51855 v 63.64258 c 0,29.99317 -21.30371,55.01367 -49.60156,60.75977 l -0.18946,0.0381 -0.18652,0.0381 -0.1875,0.0371 C 288.41113,395.70117 241.01758,400.5 192.5,400.5 c -48.51855,0 -95.911133,-4.79883 -141.834961,-13.96582 l -0.1875,-0.0371 -0.186523,-0.0381 -0.189942,-0.0381 C 21.803711,380.6748 0.5,355.6543 0.5,325.66113 c 0,-34.24218 0,59.12012 0,-63.64258 z"
       stroke-miterlimit="3.863693" /></g><g
     id="g10"
     transform="scale(0.02827226,0.02708767)"
     style="fill:#56ad75;fill-opacity:1"><path
       style="clip-rule:evenodd;fill:#56ad75;fill-rule:evenodd;fill-opacity:1"
       inkscape:connector-curvature="0"
       id="path8"
       d="m 192.5,13.103516 c 104.5498,34.419433 180,132.870114 180,248.915034 v 63.64258 c 0,24.17285 -17.16602,44.36524 -39.98242,48.99903 C 287.35449,383.67578 240.21484,388.5 192.5,388.5 144.78516,388.5 98.170898,383.78125 53.008301,374.76465 30.191406,370.13184 12.5,349.83398 12.5,325.66113 v -63.64258 c 0,-116.04492 75.450195,-214.495601 180,-248.915034 z" /></g></svg>