<?xml version="1.0" encoding="UTF-8" standalone="no"?>
<!-- Created with Inkscape (http://www.inkscape.org/) -->

<svg
   xmlns:dc="http://purl.org/dc/elements/1.1/"
   xmlns:cc="http://creativecommons.org/ns#"
   xmlns:rdf="http://www.w3.org/1999/02/22-rdf-syntax-ns#"
   xmlns:svg="http://www.w3.org/2000/svg"
   xmlns="http://www.w3.org/2000/svg"
   xmlns:sodipodi="http://sodipodi.sourceforge.net/DTD/sodipodi-0.dtd"
   xmlns:inkscape="http://www.inkscape.org/namespaces/inkscape"
   width="11"
   height="11"
   id="svg2"
   sodipodi:version="0.32"
   inkscape:version="0.92.2 5c3e80d, 2017-08-06"
   version="1.0"
   sodipodi:docname="us-highway-al-2.svg">
  <defs
     id="defs4" />
  <sodipodi:namedview
     id="base"
     pagecolor="#ffffff"
     bordercolor="#666666"
     borderopacity="1.0"
     inkscape:pageopacity="0.0"
     inkscape:pageshadow="2"
     inkscape:zoom="20.586666"
     inkscape:cx="-2.803949"
     inkscape:cy="3.2137784"
     inkscape:document-units="px"
     inkscape:current-layer="g1366"
     inkscape:window-width="1280"
     inkscape:window-height="756"
     inkscape:window-x="-4"
     inkscape:window-y="0"
     showgrid="false"
     inkscape:window-maximized="0" />
  <metadata
     id="metadata7">
    <rdf:RDF>
      <cc:Work
         rdf:about="">
        <dc:format>image/svg+xml</dc:format>
        <dc:type
           rdf:resource="http://purl.org/dc/dcmitype/StillImage" />
      </cc:Work>
    </rdf:RDF>
  </metadata>
  <g
     inkscape:label="Layer 1"
     inkscape:groupmode="layer"
     id="layer1"
     transform="translate(-1e-5,-589)">
    <g
       style="overflow:visible"
       id="g1366"
       transform="translate(205.7143,95.21933)">
      <path
         id="path7"
         d=""
         inkscape:connector-curvature="0" />
      <path
         style="fill:#ffffff;fill-opacity:1;stroke:#000000;stroke-width:0.218;stroke-opacity:1;stroke-miterlimit:4;stroke-dasharray:none"
         d="m -203.59382,504.51954 c -0.0411,-0.0335 -0.0432,-0.0417 -0.0215,-0.0825 0.0405,-0.076 0.11871,-0.1062 0.37579,-0.14493 0.25525,-0.0385 0.32971,-0.0594 0.32971,-0.0928 0,-0.0328 -0.23978,-0.35754 -0.32557,-0.4409 -0.0719,-0.0698 -0.084,-0.0942 -0.1101,-0.22142 -0.0751,-0.36548 -0.22553,-0.57648 -0.4081,-0.57234 -0.22307,0.005 -0.39216,0.34386 -0.42373,0.84902 -0.0143,0.22922 -0.0251,0.29223 -0.0656,0.38433 -0.0429,0.0975 -0.0612,0.11233 -0.13919,0.11272 -0.0408,2e-4 -0.0779,-0.0191 -0.12785,-0.0664 -0.0938,-0.089 -0.13159,-0.10089 -0.32444,-0.1024 -0.13267,-0.001 -0.17272,-0.008 -0.20935,-0.0371 -0.0249,-0.0197 -0.0834,-0.0411 -0.13003,-0.0475 -0.0466,-0.006 -0.0854,-0.021 -0.0863,-0.0324 -8.5e-4,-0.0114 -0.004,-0.0416 -0.007,-0.0672 -0.003,-0.0256 -0.0113,-0.14557 -0.0185,-0.26667 -0.007,-0.1211 -0.0157,-0.24243 -0.0188,-0.26961 -0.003,-0.0272 -0.0112,-0.14984 -0.0179,-0.27257 -0.007,-0.12272 -0.0157,-0.26496 -0.0198,-0.3161 -0.004,-0.0511 -0.012,-0.162 -0.0175,-0.24637 -0.005,-0.0844 -0.0144,-0.22244 -0.0198,-0.30681 -0.005,-0.0844 -0.0134,-0.19524 -0.0176,-0.24637 -0.004,-0.0511 -0.0126,-0.17246 -0.0185,-0.26962 -0.006,-0.0971 -0.0144,-0.21848 -0.0188,-0.26962 -0.004,-0.0511 -0.0131,-0.18421 -0.0195,-0.29572 -0.006,-0.11152 -0.0174,-0.28305 -0.0247,-0.38118 -0.0142,-0.19325 -0.0272,-0.0996 0.19912,-1.43354 0.0512,-0.3017 0.13545,-0.79956 0.18725,-1.10636 0.0518,-0.30681 0.18982,-1.12263 0.30669,-1.81294 0.11688,-0.69031 0.25398,-1.50195 0.30468,-1.80364 0.0507,-0.3017 0.0968,-0.57155 0.10249,-0.59967 l 0.0103,-0.0511 h 4.12108 4.12108 l 0.0209,0.0976 c 0.0115,0.0537 0.12498,0.59548 0.25222,1.20397 0.12723,0.6085 0.36878,1.7632 0.53676,2.56601 0.16798,0.80281 0.31668,1.51822 0.33044,1.58981 0.0615,0.31978 0.0554,0.52027 -0.018,0.59136 -0.0475,0.046 -0.0957,0.18111 -0.11394,0.31976 -0.007,0.0511 -0.0276,0.12213 -0.0464,0.15778 -0.0462,0.0877 -0.0427,0.16805 0.0151,0.34426 0.0421,0.12855 0.0499,0.18917 0.0573,0.44627 0.007,0.24416 0.002,0.32584 -0.0259,0.45556 -0.0277,0.12707 -0.0333,0.21903 -0.0287,0.46926 0.006,0.31102 0.006,0.31124 -0.0408,0.35794 -0.0256,0.0258 -0.0696,0.0476 -0.0982,0.0487 -0.0284,10e-4 -1.57673,4e-4 -3.44066,-0.001 l -3.38895,-0.003 -0.002,0.0433 c -0.0139,0.26171 0.0257,0.37504 0.20643,0.59055 0.18304,0.21827 0.20009,0.46933 0.0431,0.63461 -0.036,0.0379 -0.0855,0.1253 -0.11567,0.20441 l -0.0528,0.13823 -0.36762,0.13553 -0.36762,0.13553 -0.38855,0.0106 c -0.36936,0.0101 -0.3908,0.009 -0.43416,-0.0265 z"
         id="path1483"
         inkscape:connector-curvature="0" />
      <g
         style="overflow:visible"
         id="g4165"
         transform="matrix(1,0,0,1.00064,-1117.941,-617.729)" />
    </g>
  </g>
</svg>
