<?xml version="1.0" encoding="UTF-8" standalone="no"?>
<!-- Generator: Adobe Illustrator 12.0.0, SVG Export Plug-In . SVG Version: 6.00 Build 51448)  -->

<svg
   xmlns:dc="http://purl.org/dc/elements/1.1/"
   xmlns:cc="http://creativecommons.org/ns#"
   xmlns:rdf="http://www.w3.org/1999/02/22-rdf-syntax-ns#"
   xmlns:svg="http://www.w3.org/2000/svg"
   xmlns="http://www.w3.org/2000/svg"
   xmlns:sodipodi="http://sodipodi.sourceforge.net/DTD/sodipodi-0.dtd"
   xmlns:inkscape="http://www.inkscape.org/namespaces/inkscape"
   version="1.1"
   id="Layer_1"
   width="15.885199"
   height="10.635106"
   viewBox="0 0 15.885199 10.635105"
   overflow="visible"
   enable-background="new 0 0 385.0004883 385"
   xml:space="preserve"
   sodipodi:version="0.32"
   inkscape:version="0.92.2 5c3e80d, 2017-08-06"
   sodipodi:docname="us-highway-la-2.svg"
   inkscape:output_extension="org.inkscape.output.svg.inkscape"
   sodipodi:modified="true"
   style="overflow:visible"><metadata
     id="metadata62"><rdf:RDF><cc:Work
         rdf:about=""><dc:format>image/svg+xml</dc:format><dc:type
           rdf:resource="http://purl.org/dc/dcmitype/StillImage" /><dc:title /></cc:Work></rdf:RDF></metadata><defs
     id="defs60"><inkscape:perspective
       sodipodi:type="inkscape:persp3d"
       inkscape:vp_x="0 : 192.49998 : 1"
       inkscape:vp_y="0 : 999.9999 : 0"
       inkscape:vp_z="385.0005 : 192.49998 : 1"
       inkscape:persp3d-origin="192.50025 : 128.33331 : 1"
       id="perspective3783" /></defs><sodipodi:namedview
     inkscape:window-height="755"
     inkscape:window-width="1280"
     inkscape:pageshadow="2"
     inkscape:pageopacity="0.0"
     guidetolerance="10.0"
     gridtolerance="10.0"
     objecttolerance="10.0"
     borderopacity="1.0"
     bordercolor="#666666"
     pagecolor="#ffffff"
     id="base"
     inkscape:zoom="31.335065"
     inkscape:cx="5.4192141"
     inkscape:cy="8.5341263"
     inkscape:window-x="0"
     inkscape:window-y="1"
     inkscape:current-layer="Layer_1"
     showgrid="false"
     inkscape:window-maximized="1" /><g
     id="g27"
     transform="matrix(0.04201999,0,0,0.0285561,-0.10560223,-0.32002375)"
     style="fill:#ffffff;fill-opacity:0"><g
       id="g29"
       style="fill:#ffffff;fill-opacity:0"><path
         style="fill:#ffffff;fill-opacity:0"
         inkscape:connector-curvature="0"
         id="path31"
         d="m 16.5,24.5 c 0,-4.418457 3.581543,-8 8,-8 h 336.00049 c 4.41797,0 8,3.581543 8,8 v 336 c 0,4.41895 -3.58203,8 -8,8 H 24.5 c -4.418457,0 -8,-3.58105 -8,-8 z" /><path
         style="fill:#ffffff;fill-opacity:0"
         inkscape:connector-curvature="0"
         id="path33"
         d="M 192.5,192.5" /></g></g><g
     id="g35"
     transform="matrix(0.04619633,0,0,0.03201452,-0.99322206,-0.75234089)"><path
       style="fill:#006b54"
       inkscape:connector-curvature="0"
       id="path37"
       d="m 346.29736,354.89453 c -0.29394,-0.73242 -0.29492,-2.23926 -0.005,-3.34863 0.36816,-1.4082 -0.16992,-2.89258 -1.78223,-4.91797 -1.27148,-1.59668 -2.3125,-3.50977 -2.3125,-4.25293 0,-2.12012 -4.19433,-4.74512 -8.59082,-5.37598 -3.10547,-0.44726 -4.19238,-1.0332 -4.81543,-2.60351 -0.50683,-1.27637 -1.55468,-2.05078 -2.83105,-2.0918 -1.11524,-0.0361 -3.42969,-0.54687 -5.14551,-1.13769 -2.87695,-0.98926 -3.15234,-1.39551 -3.56348,-5.23731 -0.41601,-3.88867 -0.63574,-4.20117 -3.33496,-4.72559 -1.58984,-0.30859 -3.39453,-0.9248 -4.00976,-1.37011 -0.61524,-0.44336 -2.92285,-1.33008 -5.12891,-1.96875 -2.20508,-0.63867 -4.51953,-1.5293 -5.14355,-1.98145 -0.625,-0.45117 -1.42676,-0.52246 -1.78223,-0.15625 -0.35547,0.36621 -0.0957,0.85254 0.57813,1.08106 3.07226,1.04492 4.3789,3.55566 5.01757,9.64258 0.56836,5.43164 0.44922,6.36132 -0.94043,7.33398 -1.35644,0.95117 -1.43457,1.44727 -0.52441,3.36133 1.55273,3.26269 0.65625,4.88672 -5.34961,9.69238 -7.19629,5.75879 -8.39062,5.66992 -9.14062,-0.67871 -0.32422,-2.73926 -0.33106,-5.62305 -0.0156,-6.41016 0.86035,-2.14648 -5.65332,-7.61523 -8.31055,-6.97656 -1.16211,0.27832 -2.00781,0.0908 -2.00781,-0.44629 0,-0.51172 -0.90137,-0.80664 -2.00488,-0.65722 -1.30664,0.17773 -2.31445,1.16406 -2.89551,2.83203 -1.12598,3.23632 -5.12305,7.04297 -7.77051,7.40332 -1.25879,0.1709 -2.13086,0.95312 -2.2959,2.05761 -0.29785,1.99805 -5.63086,4.85157 -7.66699,4.10352 -0.70508,-0.25879 -2.1416,-0.0303 -3.19043,0.50684 -1.46875,0.75293 -2.22656,0.72558 -3.2832,-0.11426 -0.75586,-0.60059 -2.09961,-1.49121 -2.98828,-1.97852 -11.58789,-6.36816 -12.02539,-6.54199 -15.25879,-6.06543 l -3.25293,0.47949 -1.08984,-4.3496 c -0.92872,-3.70801 -1.53028,-4.52735 -4.06543,-5.542 -1.63672,-0.65332 -3.37696,-1.90722 -3.86622,-2.78515 -0.49121,-0.87793 -2.09765,-1.82715 -3.57226,-2.1084 -2.01074,-0.38477 -2.81738,-1.10742 -3.22461,-2.88574 -0.2998,-1.30469 -0.70898,-2.87989 -0.91211,-3.50098 -0.73828,-2.26563 -3.54687,-0.47168 -5.7793,3.68945 -2.13574,3.98438 -4.3125,5.4043 -3.66015,2.3877 0.73633,-3.40625 -0.72657,-5.34863 -4.75977,-6.32129 -2.8789,-0.69336 -3.99414,-1.39063 -3.99414,-2.49805 0,-2.64355 -1.01953,-4.23437 -2.71533,-4.23437 -0.89893,0 -1.88233,0.38476 -2.18506,0.85351 -0.30273,0.46875 -2.05322,0.85352 -3.89062,0.85352 -1.8379,0 -4.11963,0.56347 -5.07081,1.25195 -3.80761,2.75781 -5.11621,0.80957 -2.59375,-3.8623 1.02393,-1.89551 1.12745,-2.94825 0.41407,-4.22364 -1.20069,-2.14843 -2.72119,-2.14843 -5.5752,9.8e-4 -1.2417,0.93652 -3.76221,2.18262 -5.60156,2.77246 -4.77246,1.53223 -5.55469,3.15039 -3.56299,7.38086 1.32764,2.81836 1.42334,3.70703 0.51172,4.75879 -1.479,1.70605 -7.41406,3.19531 -10.13184,2.54199 -1.37548,-0.33105 -3.5664,0.17188 -6.04736,1.38867 -2.52539,1.23633 -5.2959,1.86231 -7.89893,1.78321 -2.20507,-0.0664 -6.01416,-0.17383 -8.46435,-0.23633 -4.30078,-0.11035 -10.17725,0.94629 -21.34717,3.83789 -7.30127,1.89062 -8.306151,1.79492 -17.571776,-1.67188 -4.479004,-1.67578 -9.380859,-3.07226 -10.895019,-3.10253 -1.513184,-0.0303 -4.154297,-0.71583 -5.870118,-1.52344 -5.994629,-2.82324 -9.472656,-2.77051 -15.943359,0.24121 -4.943359,2.30078 -6.953613,2.75098 -12.566895,2.81152 -4.253418,0.0469 -7.93164,0.60742 -10.118164,1.54297 -3.272461,1.39941 -3.520996,1.39649 -5.205566,-0.0635 -4.487793,-3.88867 -3.863281,-6.89941 1.888672,-9.10351 5.215332,-1.99805 5.800781,-3.63086 6.009765,-16.76367 0.184082,-11.55274 0.862305,-14.99024 5.214844,-26.4375 1.121582,-2.94922 1.388672,-6.18067 1.165039,-14.07813 -0.26416,-9.3125 -0.490722,-10.5039 -2.471679,-13.0332 -2.07959,-2.6543 -2.13086,-3.01367 -1.11377,-7.72949 0.586426,-2.72168 1.069336,-7.03614 1.071777,-9.58789 0.0044,-4.93262 0.164551,-5.25586 7.309571,-14.80176 6.317871,-8.44141 6.318359,-8.44531 6.568359,-20.54395 0.250488,-12.17529 -0.90332,-18.15674 -4.545898,-23.57177 -1.141602,-1.69727 -2.511231,-4.57666 -3.043946,-6.39893 -0.533203,-1.82324 -2.166503,-4.82227 -3.630371,-6.66553 -1.464843,-1.84375 -2.662597,-3.79931 -2.662597,-4.34668 0,-0.54834 -1.685547,-3.45508 -3.744629,-6.46045 -4.005371,-5.84326 -4.436524,-8.35058 -2.949707,-17.13964 0.735351,-4.34522 -0.608887,-7.29981 -5.996582,-13.17432 -1.390137,-1.51758 -3.560547,-5.18506 -4.821778,-8.15137 -2.270996,-5.33935 -2.289062,-5.55908 -1.76123,-22.030272 0.29248,-9.150391 0.539551,-27.218262 0.54834,-40.149902 0.0123,-17.448711 0.302824,-23.886699 1.129484,-24.961894 C 24.49707,23.603515 31.508301,23.501465 124.17969,23.5 c 67.58105,-0.002 100.16455,0.284179 101.34619,0.88916 1.0918,0.55957 1.74023,1.783691 1.74023,3.288574 0,2.577149 1.90821,4.666504 5.11719,5.603027 5.07422,1.480469 6.10449,5.974122 2.45508,10.709961 -2.70508,3.511231 -2.78711,5.508301 -0.38281,9.285157 1.57617,2.478027 1.68652,3.236816 0.76953,5.35498 -0.9043,2.09082 -0.82813,2.719238 0.49316,4.117188 1.17969,1.248535 1.41211,2.404785 0.9541,4.741699 -0.40722,2.079101 -0.19531,3.696289 0.65039,4.94043 0.68946,1.016113 1.77735,3.384277 2.41602,5.26123 0.63867,1.877441 1.75195,4.281738 2.47168,5.342773 1.88965,2.781739 1.03418,9.896485 -1.87012,15.560547 -5.88086,11.466304 -14.3789,23.719234 -17.63867,25.428224 -6.00391,3.14941 -6.17285,3.44775 -7.4043,13.08789 -1.23828,9.68896 -1.26758,9.76758 -5.22461,14.53467 -2.5664,3.09326 -2.58789,3.20459 -1.42382,7.55566 1.10546,4.12598 1.05175,4.646 -0.80665,7.89551 -1.09472,1.9126 -1.68164,3.76855 -1.30664,4.12256 0.83204,0.7832 46.53711,2.93701 88.44141,4.16748 37.72949,1.10742 36.52734,0.95898 36.53516,4.51367 0.004,1.50293 -0.46875,5.72363 -1.04981,9.37891 -0.84082,5.28418 -0.82129,7.52539 0.0928,10.93847 1.51074,5.64551 0.0517,11.13379 -3.62696,13.64161 -2.94433,2.00781 -3.2539,4.16015 -0.89062,6.208 0.91211,0.79102 2.35644,3.0586 3.20898,5.03907 4.06836,9.44628 6.44434,13.87011 8.375,15.5957 1.15723,1.03418 2.4336,3.36523 2.83594,5.18164 0.40234,1.81445 1.20019,4.83398 1.77246,6.71191 0.57324,1.87696 1.24414,4.86426 1.49121,6.63672 0.41699,2.98047 0.14063,3.48535 -3.6543,6.68457 -2.74902,2.31739 -4.10546,4.14063 -4.10546,5.52149 0,2.49902 1.83203,2.69238 3.35742,0.35351 1.39062,-2.13379 3.05468,-2.16992 5.00195,-0.11133 1.2793,1.35352 1.33984,1.9502 0.40234,3.91895 -0.97461,2.05176 -0.88671,2.48926 0.75391,3.7373 1.02246,0.77735 2.30566,2.25196 2.85352,3.27735 0.57714,1.08203 2.01757,1.97558 3.4375,2.13281 3.24609,0.35938 3.76562,3.0332 0.99218,5.11523 -1.9375,1.45411 -1.97851,1.64258 -0.53906,2.45997 2.33008,1.32324 1.88281,3.16601 -0.89062,3.66113 -1.34766,0.24023 -4.05469,0.7168 -6.01368,1.06055 -1.95996,0.34179 -5.33203,0.65625 -7.49121,0.69726 -4.68164,0.0879 -6.02343,1.96484 -1.96093,2.74219 3.6123,0.6914 5.14941,2.4375 3.66015,4.15625 -0.61035,0.70508 -2.0332,1.28027 -3.16308,1.28027 -2.29981,0 -5.7461,3.6377 -5.7461,6.06543 0,0.87403 1.16211,2.14453 2.61914,2.86621 3.19336,1.58106 5.39942,4.44629 5.39942,7.0127 0,2.1289 2.34472,3.67871 5.56543,3.67871 2.00195,0 4.78222,2.66699 7.48437,7.18066 0.58008,0.97071 1.98438,1.72266 3.25,1.74219 1.36328,0.0225 3.82031,1.46191 6.32813,3.70898 3.4707,3.10743 4.10058,4.16797 4.10058,6.89063 0,3.32031 -1.79883,5.62109 -6.02734,7.70898 -1.65234,0.81739 -2.11328,0.75879 -2.54492,-0.31933 -0.74512,-1.86035 -3.32617,-1.63281 -5.3125,0.46972 -2.63965,2.79395 -4.55762,3.52344 -5.18067,1.96973 z" /></g><g
     id="g39"
     transform="matrix(0.04201999,0,0,0.0285561,-0.10560223,-0.32002375)"><g
       id="g41"><polygon
         style="clip-rule:evenodd;fill:#ffffff;fill-rule:evenodd"
         id="polygon43"
         points="80.333008,42.229004 80.333008,125.94678 115.63525,125.94678 115.63525,138.771 66.5,138.771 66.5,42.229004 " /></g><g
       id="g45"><path
         style="clip-rule:evenodd;fill:#ffffff;fill-rule:evenodd"
         inkscape:connector-curvature="0"
         id="path47"
         d="m 169.52588,138.771 -6.77246,-26.36914 h -20.74951 l -6.33985,26.36914 h -13.97705 l 24.06348,-96.541996 h 13.54443 L 183.3584,138.771 Z M 152.23437,71.047363 145.4624,98.857422 h 13.83252 z" /></g></g></svg>