<?xml version="1.0" encoding="UTF-8" standalone="no"?>
<!-- Created with Inkscape (http://www.inkscape.org/) -->

<svg
   xmlns:dc="http://purl.org/dc/elements/1.1/"
   xmlns:cc="http://creativecommons.org/ns#"
   xmlns:rdf="http://www.w3.org/1999/02/22-rdf-syntax-ns#"
   xmlns:svg="http://www.w3.org/2000/svg"
   xmlns="http://www.w3.org/2000/svg"
   xmlns:sodipodi="http://sodipodi.sourceforge.net/DTD/sodipodi-0.dtd"
   xmlns:inkscape="http://www.inkscape.org/namespaces/inkscape"
   version="1.0"
   width="11"
   height="11.000081"
   id="svg2"
   sodipodi:docname="us-highway-md-2.svg"
   inkscape:version="0.92.2 5c3e80d, 2017-08-06">
  <metadata
     id="metadata14">
    <rdf:RDF>
      <cc:Work
         rdf:about="">
        <dc:format>image/svg+xml</dc:format>
        <dc:type
           rdf:resource="http://purl.org/dc/dcmitype/StillImage" />
      </cc:Work>
    </rdf:RDF>
  </metadata>
  <sodipodi:namedview
     pagecolor="#ffffff"
     bordercolor="#666666"
     borderopacity="1"
     objecttolerance="10"
     gridtolerance="10"
     guidetolerance="10"
     inkscape:pageopacity="0"
     inkscape:pageshadow="2"
     inkscape:window-width="1280"
     inkscape:window-height="755"
     id="namedview12"
     showgrid="false"
     inkscape:zoom="25.173333"
     inkscape:cx="9.1376655"
     inkscape:cy="10.974483"
     inkscape:window-x="0"
     inkscape:window-y="1"
     inkscape:window-maximized="1"
     inkscape:current-layer="svg2" />
  <defs
     id="defs4" />
  <g
     id="layer1"
     transform="matrix(0.00458143,0,0,0.00458142,0.00229071,0.00229071)" />
  <path
     d="m 0.00229071,0.91859071 c 0,-0.506 0.41023472,-0.9163 0.91628488,-0.9163 H 10.081424 c 0.50605,0 0.916285,0.4103 0.916285,0.9163 V 10.081491 c 0,0.506 -0.410235,0.9163 -0.916285,0.9163 H 0.91857559 c -0.50605016,0 -0.91628488,-0.4103 -0.91628488,-0.9163 z"
     style="fill:#ffffff;fill-opacity:1;fill-rule:evenodd;stroke:#000000;stroke-width:0.00458142;stroke-linecap:butt;stroke-linejoin:miter;stroke-opacity:1"
     id="path1405"
     inkscape:connector-curvature="0" />
  <path
     d="m 0.23136192,0.91859071 c 0,-0.3795 0.30767605,-0.6872 0.68721367,-0.6872 H 10.081424 c 0.379538,0 0.687214,0.3077 0.687214,0.6872 V 10.081491 c 0,0.3795 -0.307676,0.6872 -0.687214,0.6872 H 0.91857559 c -0.37953762,0 -0.68721367,-0.3077 -0.68721367,-0.6872 z"
     style="fill:#000000;fill-opacity:1;fill-rule:evenodd;stroke:#000000;stroke-width:0.00458142px;stroke-linecap:butt;stroke-linejoin:miter;stroke-opacity:1"
     id="path1341"
     inkscape:connector-curvature="0" />
  <path
     d="M 0.91857559,0.46049071 H 10.081424 c 0.253026,0 0.458143,0.2051 0.458143,0.4581 V 3.3238907 H 0.46043315 V 0.91859071 c 0,-0.253 0.20511737,-0.4581 0.45814244,-0.4581 z"
     style="fill:#ffffff;fill-opacity:1;fill-rule:evenodd;stroke:#000000;stroke-width:0.00458142px;stroke-linecap:butt;stroke-linejoin:miter;stroke-opacity:1"
     id="path10350"
     inkscape:connector-curvature="0" />
  <path
     d="M 0.46043315,3.8965907 H 10.539567 v 6.1849003 c 0,0.253 -0.205117,0.4581 -0.458143,0.4581 H 0.91857559 c -0.25302507,0 -0.45814244,-0.2051 -0.45814244,-0.4581 z"
     style="fill:#ffffff;fill-opacity:1;fill-rule:evenodd;stroke:#000000;stroke-width:0.00458142px;stroke-linecap:butt;stroke-linejoin:miter;stroke-opacity:1"
     id="path1343"
     inkscape:connector-curvature="0" />
  <path
     d="m 1.5295372,2.5793907 v -0.7999 l -0.3195544,0.7999 -0.31955434,-0.7999 v 0.7999 H 0.67189452 v -1.3813 h 0.21853394 l 0.31955434,0.7752 0.3195544,-0.7752 h 0.2185339 v 1.3813 H 1.5295372 m 1.3620038,0 -0.1360683,-0.3876 H 2.3245896 l -0.1360682,0.3876 H 1.955556 l 0.4762391,-1.3813 h 0.2164723 l 0.476239,1.3813 H 2.891541 m -0.3484173,-0.9978 -0.1422533,0.3875 h 0.2762598 l -0.1340065,-0.3875 m 1.4934011,0.9978 -0.2226572,-0.602 H 3.5520392 v 0.602 h -0.218534 v -1.3813 h 0.4556227 c 0.053602,0 0.099645,0 0.1381299,0.01 0.038483,0.01 0.074906,0.017 0.109267,0.033 0.030237,0.015 0.057725,0.035 0.082466,0.06 0.026114,0.023 0.048104,0.051 0.065973,0.082 0.019241,0.03 0.033673,0.063 0.043295,0.099 0.010994,0.034 0.016492,0.069 0.016493,0.1031 -1e-6,0.037 -0.0055,0.073 -0.016493,0.1093 -0.00962,0.034 -0.024054,0.067 -0.043295,0.099 -0.017868,0.03 -0.040547,0.058 -0.068034,0.082 -0.026115,0.025 -0.054978,0.044 -0.086588,0.058 l 0.2432731,0.6453 H 4.0365248 m -0.010308,-0.9937 c -9e-7,-0.029 -0.00756,-0.056 -0.022678,-0.082 -0.015119,-0.026 -0.036423,-0.047 -0.063911,-0.062 -0.017868,-0.01 -0.034362,-0.016 -0.049479,-0.019 -0.015119,0 -0.040546,-0.01 -0.07628,-0.01 H 3.55204 v 0.3381 h 0.2618284 c 0.03436,0 0.0591,0 0.074219,0 0.016492,0 0.033673,-0.01 0.051541,-0.019 0.027488,-0.015 0.048791,-0.036 0.063911,-0.062 0.015118,-0.027 0.022677,-0.056 0.022678,-0.084 m 1.085164,0.3917 v 0.602 H 4.8928467 v -0.602 l -0.4844856,-0.7793 h 0.2618284 l 0.3298625,0.534 0.3339859,-0.534 H 5.591743 l -0.4803624,0.7793 m 0.7186432,0.602 v -1.3813 h 0.218534 v 1.1772 h 0.6391087 v 0.2041 H 5.8300238 m 1.8773816,0 -0.1360683,-0.3876 h -0.430883 l -0.1360683,0.3876 H 6.7714204 l 0.4762391,-1.3813 h 0.2164723 l 0.476239,1.3813 H 7.7074054 m -0.3484173,-0.9978 -0.1422533,0.3875 h 0.27626 l -0.1340067,-0.3875 m 1.5366958,0.9978 -0.52778,-0.936 v 0.936 H 8.14937 v -1.3813 h 0.2185339 l 0.5030403,0.8824 v -0.8824 h 0.2185341 v 1.3813 H 8.8956839 m 1.4621861,-0.6927 c -10e-7,0.1388 -0.0213,0.2611 -0.06391,0.367 -0.04123,0.1044 -0.101021,0.1869 -0.179363,0.2474 -0.02612,0.025 -0.05704,0.043 -0.09277,0.056 -0.034362,0.012 -0.069408,0.02 -0.1051432,0.023 H 9.8383368 9.417762 v -1.3813 h 0.4453145 c 0.034361,0 0.063911,0 0.08865,0 0.026113,0 0.049479,0 0.070096,0.01 0.02062,0.01 0.03917,0.013 0.05566,0.023 0.01649,0.01 0.03436,0.021 0.0536,0.035 0.07284,0.063 0.128509,0.1477 0.166993,0.2535 0.03986,0.1045 0.05979,0.2254 0.05979,0.3629 m -0.222657,0 c -1e-6,-0.093 -0.01031,-0.1766 -0.03092,-0.2495 -0.01924,-0.073 -0.04605,-0.1271 -0.0804,-0.1628 -0.01787,-0.016 -0.038484,-0.03 -0.061849,-0.041 -0.023366,-0.011 -0.04948,-0.017 -0.078342,-0.017 H 9.636296 v 0.9401 h 0.2185339 c 0.035735,0 0.065285,0 0.08865,-0.012 0.02474,-0.01 0.04673,-0.022 0.065973,-0.041 0.04123,-0.041 0.07216,-0.097 0.09277,-0.169 0.02199,-0.073 0.03299,-0.1553 0.03299,-0.2474"
     style="font-style:normal;font-variant:normal;font-weight:normal;font-stretch:normal;font-size:450px;line-height:125%;font-family:'Roadgeek 2005 Series D';text-align:center;writing-mode:lr-tb;text-anchor:middle;fill:#000000;fill-opacity:1;stroke:none;stroke-width:0.00458142px;stroke-linecap:butt;stroke-linejoin:miter;stroke-opacity:1"
     id="text2947"
     inkscape:connector-curvature="0" />
</svg>
