<?xml version="1.0" encoding="UTF-8" standalone="no"?>
<!-- Generator: Adobe Illustrator 12.0.0, SVG Export Plug-In . SVG Version: 6.00 Build 51448)  -->

<svg
   xmlns:dc="http://purl.org/dc/elements/1.1/"
   xmlns:cc="http://creativecommons.org/ns#"
   xmlns:rdf="http://www.w3.org/1999/02/22-rdf-syntax-ns#"
   xmlns:svg="http://www.w3.org/2000/svg"
   xmlns="http://www.w3.org/2000/svg"
   xmlns:sodipodi="http://sodipodi.sourceforge.net/DTD/sodipodi-0.dtd"
   xmlns:inkscape="http://www.inkscape.org/namespaces/inkscape"
   version="1.1"
   id="Layer_1"
   width="13.845001"
   height="10.999998"
   viewBox="0 0 13.845001 10.999998"
   overflow="visible"
   enable-background="new 0 0 481 385"
   xml:space="preserve"
   inkscape:version="0.92.2 5c3e80d, 2017-08-06"
   sodipodi:docname="us-highway-state-square-3.svg"
   style="overflow:visible"><metadata
     id="metadata3446"><rdf:RDF><cc:Work
         rdf:about=""><dc:format>image/svg+xml</dc:format><dc:type
           rdf:resource="http://purl.org/dc/dcmitype/StillImage" /><dc:title /></cc:Work></rdf:RDF></metadata><defs
     id="defs3444"><inkscape:perspective
       sodipodi:type="inkscape:persp3d"
       inkscape:vp_x="0 : 192.5 : 1"
       inkscape:vp_y="0 : 999.99999 : 0"
       inkscape:vp_z="480.99999 : 192.5 : 1"
       inkscape:persp3d-origin="240.5 : 128.33333 : 1"
       id="perspective3448" /></defs><sodipodi:namedview
     pagecolor="#ffffff"
     bordercolor="#666666"
     borderopacity="1"
     objecttolerance="10"
     gridtolerance="10"
     guidetolerance="10"
     inkscape:pageopacity="0"
     inkscape:pageshadow="2"
     inkscape:window-width="1280"
     inkscape:window-height="755"
     id="namedview3442"
     showgrid="false"
     inkscape:zoom="0.86689455"
     inkscape:cx="193.36759"
     inkscape:cy="152.08446"
     inkscape:window-x="0"
     inkscape:window-y="1"
     inkscape:window-maximized="1"
     inkscape:current-layer="Layer_1" /><g
     id="g3384"
     transform="matrix(0.02963401,0,0,0.02963364,-0.20447177,-0.20446922)"><g
       id="g3386"><path
         inkscape:connector-curvature="0"
         id="path3388"
         d="M 6.8999023,24.5 C 6.8999023,14.779785 14.779297,6.8999023 24.5,6.8999023 h 432 c 9.7207,0 17.59961,7.8798827 17.59961,17.6000977 v 336 c 0,9.7207 -7.87891,17.59961 -17.59961,17.59961 h -432 c -9.720703,0 -17.6000977,-7.87891 -17.6000977,-17.59961 z" /><path
         inkscape:connector-curvature="0"
         id="path3390"
         d="M 240.5,192.5" /></g></g><g
     id="g3392"
     transform="matrix(0.02963401,0,0,0.02963364,-0.20447177,-0.20446922)"><g
       id="g3394"><path
         style="fill:#ffffff"
         inkscape:connector-curvature="0"
         id="path3396"
         d="m 16.5,24.5 c 0,-4.418457 3.581543,-8 8,-8 h 432 c 4.41797,0 8,3.581543 8,8 v 336 c 0,4.41797 -3.58203,8 -8,8 h -432 c -4.418457,0 -8,-3.58203 -8,-8 z" /><path
         style="fill:#ffffff"
         inkscape:connector-curvature="0"
         id="path3398"
         d="M 240.5,192.5" /></g></g></svg>