<?xml version="1.0" encoding="UTF-8" standalone="no"?>
<!-- Generator: Adobe Illustrator 12.0.0, SVG Export Plug-In . SVG Version: 6.00 Build 51448)  -->

<svg
   xmlns:dc="http://purl.org/dc/elements/1.1/"
   xmlns:cc="http://creativecommons.org/ns#"
   xmlns:rdf="http://www.w3.org/1999/02/22-rdf-syntax-ns#"
   xmlns:svg="http://www.w3.org/2000/svg"
   xmlns="http://www.w3.org/2000/svg"
   xmlns:sodipodi="http://sodipodi.sourceforge.net/DTD/sodipodi-0.dtd"
   xmlns:inkscape="http://www.inkscape.org/namespaces/inkscape"
   version="1.1"
   id="Layer_1"
   width="10.999999"
   height="10.999999"
   viewBox="0 0 10.999999 10.999999"
   overflow="visible"
   enable-background="new 0 0 384 384"
   xml:space="preserve"
   inkscape:version="0.92.2 5c3e80d, 2017-08-06"
   sodipodi:docname="us-highway-ak.svg"
   style="overflow:visible"><metadata
     id="metadata2964"><rdf:RDF><cc:Work
         rdf:about=""><dc:format>image/svg+xml</dc:format><dc:type
           rdf:resource="http://purl.org/dc/dcmitype/StillImage" /><dc:title></dc:title></cc:Work></rdf:RDF></metadata><defs
     id="defs2962"><inkscape:perspective
       sodipodi:type="inkscape:persp3d"
       inkscape:vp_x="0 : 192 : 1"
       inkscape:vp_y="0 : 1000 : 0"
       inkscape:vp_z="384 : 192 : 1"
       inkscape:persp3d-origin="192 : 128 : 1"
       id="perspective2966" /></defs><sodipodi:namedview
     pagecolor="#ffffff"
     bordercolor="#666666"
     borderopacity="1"
     objecttolerance="10"
     gridtolerance="10"
     guidetolerance="10"
     inkscape:pageopacity="0"
     inkscape:pageshadow="2"
     inkscape:window-width="1280"
     inkscape:window-height="755"
     id="namedview2960"
     showgrid="false"
     inkscape:zoom="22.627417"
     inkscape:cx="-2.6641519"
     inkscape:cy="7.6544644"
     inkscape:window-x="0"
     inkscape:window-y="1"
     inkscape:window-maximized="1"
     inkscape:current-layer="Layer_1"
     fit-margin-top="0"
     fit-margin-left="0"
     fit-margin-right="0"
     fit-margin-bottom="0" /><g
     id="g2926"
     transform="scale(0.02864583)"><g
       id="g2928"><path
         d="M 0,24 C 0,10.745117 10.745117,0 24,0 h 336 c 13.25488,0 24,10.745117 24,24 v 336 c 0,13.25488 -10.74512,24 -24,24 H 24 C 10.745117,384 0,373.25488 0,360 Z"
         id="path2930"
         inkscape:connector-curvature="0" /><path
         d="M 192,192"
         id="path2932"
         inkscape:connector-curvature="0" /></g><g
       id="g2934"><path
         d="m 12,24 c 0,-6.627441 5.372559,-12 12,-12 h 336 c 6.62695,0 12,5.372559 12,12 v 336 c 0,6.62695 -5.37305,12 -12,12 H 24 c -6.627441,0 -12,-5.37305 -12,-12 z"
         id="path2936"
         inkscape:connector-curvature="0"
         style="fill:#ffffff" /><path
         d="M 192,192"
         id="path2938"
         inkscape:connector-curvature="0"
         style="fill:#ffffff" /></g><polygon
       points="241.45605,291.35254 252.38184,291.35254 243.54297,297.77539 246.91895,308.16699 238.08008,301.74414 229.24121,308.16699 232.61719,297.77539 223.77734,291.35156 234.7041,291.35156 238.08008,280.95996 "
       id="polygon2940"
       style="clip-rule:evenodd;fill-rule:evenodd" /><polygon
       points="225.45605,331.35254 236.38184,331.35254 227.54297,337.77539 230.91895,348.16699 222.08008,341.74414 213.24121,348.16699 216.61719,337.77539 207.77734,331.35156 218.7041,331.35156 222.08008,320.95996 "
       id="polygon2942"
       style="clip-rule:evenodd;fill-rule:evenodd" /><polygon
       points="165.2959,322.55273 176.22217,322.55273 167.38281,328.97461 170.75928,339.36719 161.91992,332.94434 153.08105,339.36719 156.45703,328.97461 147.61719,322.55176 158.54395,322.55273 161.91992,312.16016 "
       id="polygon2944"
       style="clip-rule:evenodd;fill-rule:evenodd" /><polygon
       points="165.2959,279.51172 176.22217,279.51172 167.38281,285.93555 170.75928,296.32715 161.91992,289.9043 153.08105,296.32715 156.45703,285.93555 147.61719,279.51172 158.54395,279.51172 161.91992,269.12012 "
       id="polygon2946"
       style="clip-rule:evenodd;fill-rule:evenodd" /><polygon
       points="137.29639,253.43164 148.22217,253.43262 139.38281,259.85547 142.75928,270.24707 133.91992,263.82422 125.08105,270.24707 128.45703,259.85547 119.61719,253.43164 130.54395,253.43164 133.91992,243.04004 "
       id="polygon2948"
       style="clip-rule:evenodd;fill-rule:evenodd" /><polygon
       points="96.335938,232.47266 107.26221,232.47266 98.422852,238.89453 101.79932,249.28711 92.959961,242.86426 84.121094,249.28711 87.49707,238.89551 78.657227,232.47168 89.583984,232.47266 92.959961,222.08008 "
       id="polygon2950"
       style="clip-rule:evenodd;fill-rule:evenodd" /><polygon
       points="50.256348,221.43164 61.182129,221.43262 52.342773,227.85547 55.719727,238.24707 46.879883,231.82422 38.041016,238.24707 41.416992,227.85547 32.577148,221.43164 43.503906,221.43164 46.879883,211.04004 "
       id="polygon2952"
       style="clip-rule:evenodd;fill-rule:evenodd" /><polygon
       points="332.42773,56.583496 349.86133,56.583984 335.75684,66.83252 341.14453,83.415039 327.04004,73.166504 312.93555,83.415039 318.32324,66.83252 304.2168,56.583496 321.65234,56.583496 327.04004,40.001465 "
       id="polygon2954"
       style="clip-rule:evenodd;fill-rule:evenodd" /><path
       d="M 69.257812,87.487305 H 61.501953 L 60.449219,74.024414 H 45.81543 L 37.794922,87.487305 H 30.038086 L 58.254883,40.65918 h 7.024414 z M 59.782227,66.707031 58.566406,53.024902 50.343262,66.707031 Z M 101.4082,87.487305 H 72.87207 L 84.990723,40.65918 h 7.317382 L 82.08252,80.170898 h 21.21924 z m 42.83399,0 h -7.75635 L 135.43359,74.024414 H 120.7998 l -8.02148,13.462891 h -7.75537 L 133.23926,40.65918 h 7.02441 z m -9.47608,-20.780274 -1.21435,-13.682129 -8.22461,13.682129 z m 48.15088,6.878418 c -0.98486,3.805176 -3.30029,7.097168 -7.05713,10.023926 C 172.10254,86.536621 168.1377,88 163.8208,88 c -5.63379,0 -9.4209,-2.048828 -11.50684,-6.146484 -0.66455,-1.389649 -1.08544,-3.438477 -1.31738,-6.219239 l 7.51953,-2.195312 c -0.0268,0.95166 0.003,1.682617 0.0903,2.195312 0.81152,3.365723 3.17578,4.975586 7.12744,4.975586 2.04834,0 4.04834,-0.658691 6.09082,-2.048828 2.04248,-1.390625 3.28369,-3.073242 3.81299,-5.12207 0.79589,-3.073242 -0.44629,-5.341309 -3.85352,-6.878418 -3.26367,-1.243164 -6.45361,-2.486817 -9.625,-3.804199 -3.25635,-2.122071 -4.3252,-5.341797 -3.18897,-9.731446 0.75733,-2.927246 2.55518,-5.634765 5.50538,-8.269043 C 168.08887,41.537109 172.07275,40 176.6084,40 c 4.39062,0 7.48633,1.609863 9.43359,4.82959 0.66699,1.097168 1.20215,2.707031 1.65821,4.901855 l -7.51954,2.195313 c -0.24707,-1.024414 -0.49707,-1.75586 -0.80273,-2.268067 -0.99316,-1.536621 -2.55957,-2.268554 -4.68164,-2.268554 -1.90234,0 -3.66406,0.585449 -5.28418,1.756347 -1.62012,1.170899 -2.61914,2.487793 -3.0166,4.024414 -0.56836,2.194825 0.82568,3.87793 4.32812,5.048829 5.4336,1.902343 8.60547,3.219726 9.56787,4.024414 3.16114,2.487304 4.07862,6.29248 2.71534,11.561035 z m 32.21094,13.901856 h -8.26856 l -6.09667,-22.242676 -6.23536,5.999023 -4.2041,16.243653 h -7.3164 L 195.125,40.65918 h 7.31738 L 197.63281,59.244141 216.7832,40.65918 h 9.29297 l -18.74414,18.145996 7.86914,28.682129 z m 42.83398,0 h -7.75586 l -1.05273,-13.462891 h -14.63281 l -8.02149,13.462891 h -7.75683 L 246.95898,40.65918 h 7.02442 z m -9.47656,-20.780274 -1.21387,-13.682129 -8.22461,13.682129 z"
       id="path2956"
       inkscape:connector-curvature="0"
       style="clip-rule:evenodd;fill-rule:evenodd" /></g></svg>