<?xml version="1.0" encoding="UTF-8" standalone="no"?>
<!-- Created with Inkscape (http://www.inkscape.org/) -->

<svg
   xmlns:dc="http://purl.org/dc/elements/1.1/"
   xmlns:cc="http://creativecommons.org/ns#"
   xmlns:rdf="http://www.w3.org/1999/02/22-rdf-syntax-ns#"
   xmlns:svg="http://www.w3.org/2000/svg"
   xmlns="http://www.w3.org/2000/svg"
   xmlns:sodipodi="http://sodipodi.sourceforge.net/DTD/sodipodi-0.dtd"
   xmlns:inkscape="http://www.inkscape.org/namespaces/inkscape"
   version="1.0"
   width="14.565997"
   height="10.999998"
   id="svg2"
   sodipodi:docname="us-highway-al-3.svg"
   inkscape:version="0.92.2 5c3e80d, 2017-08-06">
  <sodipodi:namedview
     pagecolor="#ffffff"
     bordercolor="#666666"
     borderopacity="1"
     objecttolerance="10"
     gridtolerance="10"
     guidetolerance="10"
     inkscape:pageopacity="0"
     inkscape:pageshadow="2"
     inkscape:window-width="1231"
     inkscape:window-height="636"
     id="namedview13"
     showgrid="false"
     inkscape:zoom="24.576"
     inkscape:cx="0.9602141"
     inkscape:cy="3.4977225"
     inkscape:window-x="0"
     inkscape:window-y="0"
     inkscape:window-maximized="0"
     inkscape:current-layer="svg2" />
  <defs
     id="defs4" />
  <metadata
     id="metadata7">
    <rdf:RDF>
      <cc:Work
         rdf:about="">
        <dc:format>image/svg+xml</dc:format>
        <dc:type
           rdf:resource="http://purl.org/dc/dcmitype/StillImage" />
        <dc:title />
      </cc:Work>
    </rdf:RDF>
  </metadata>
  <path
     d=""
     id="path7"
     inkscape:connector-curvature="0"
     style="stroke-width:0.01833314" />
  <path
     d="m 3.0280659,10.738865 c -0.05179,-0.03344 -0.054487,-0.04165 -0.02709,-0.08248 0.051025,-0.07603 0.1496734,-0.106203 0.473812,-0.144933 0.3218229,-0.03845 0.4157089,-0.0594 0.4157089,-0.09277 0,-0.03282 -0.3023191,-0.357543 -0.4104897,-0.4409027 C 3.3894051,9.9079657 3.3741482,9.8836317 3.3411849,9.7563725 3.2465152,9.3908875 3.0568246,9.1798912 2.8266313,9.1840263 2.5453791,9.1890802 2.3321831,9.5278881 2.2923832,10.033048 c -0.01806,0.229224 -0.031619,0.292228 -0.082708,0.384328 -0.05411,0.09755 -0.077134,0.112335 -0.1754938,0.112722 -0.051489,2.03e-4 -0.098237,-0.01906 -0.1612,-0.06641 -0.1182959,-0.08897 -0.1659136,-0.100889 -0.4090604,-0.102401 -0.1672759,-0.001 -0.2177813,-0.0081 -0.2639578,-0.03711 -0.031407,-0.0197 -0.1051838,-0.04107 -0.1639503,-0.0475 -0.0587664,-0.0064 -0.10772237,-0.021 -0.10879082,-0.03239 -0.001069,-0.0114 -0.004998,-0.04163 -0.008732,-0.0672 -0.003734,-0.02557 -0.0142381,-0.145569 -0.023343,-0.2666698 C 0.88604301,9.7893195 0.87536132,9.6679919 0.87141002,9.6408054 0.8674589,9.6136171 0.85727623,9.4909636 0.84878276,9.3682416 0.84028855,9.2455194 0.82903817,9.1032735 0.82378229,9.0521394 0.81852624,9.001005 0.80860885,8.890137 0.80174334,8.8057657 0.79487747,8.7213941 0.78364248,8.583332 0.77677679,8.4989604 0.76991147,8.4145889 0.75993248,8.3037208 0.75460107,8.2525866 0.7492704,8.2014524 0.73875407,8.0801248 0.73123206,7.9829701 0.72370987,7.885815 0.71305824,7.7644874 0.70756111,7.7133533 0.70206452,7.6622189 0.69101342,7.5291419 0.68300339,7.4176266 0.67499317,7.3061131 0.6610011,7.1345811 0.6519107,7.0364443 0.63400876,6.8431963 0.61760407,6.9368648 0.90296854,5.6029058 0.96750767,5.3012138 1.0737517,4.803353 1.1390658,4.4965476 1.2043806,4.1897427 1.3783881,3.3739197 1.5257502,2.683608 1.6731114,1.9932965 1.8459814,1.1816573 1.9099045,0.87996539 1.9738282,0.57827365 2.0319758,0.3084246 2.0391214,0.28030081 l 0.012993,-0.0511342 H 7.2481468 12.44418 l 0.02632,0.0976198 c 0.01447,0.0536909 0.157577,0.59548089 0.318002,1.20397799 0.160427,0.6084969 0.464973,1.7632 0.676774,2.5660068 0.211798,0.8028068 0.399285,1.5182209 0.416636,1.5898087 0.07751,0.3197802 0.06979,0.5202727 -0.02276,0.5913584 -0.05993,0.046032 -0.120624,0.1811135 -0.143661,0.3197599 -0.0085,0.051134 -0.03482,0.1221326 -0.05851,0.1577759 -0.05826,0.087677 -0.05381,0.1680585 0.01903,0.3442689 0.05314,0.1285476 0.06296,0.1891668 0.07225,0.4462619 0.0088,0.2441612 0.003,0.3258476 -0.03261,0.4555592 -0.03487,0.1270788 -0.04197,0.2190386 -0.0362,0.4692632 0.0072,0.3110204 0.0071,0.3112396 -0.05143,0.3579392 -0.03234,0.025787 -0.08781,0.047599 -0.123781,0.048674 -0.03585,0.00107 -1.988007,4.015e-4 -4.3381259,-0.00149 l -4.2729461,-0.00344 -0.00291,0.043326 c -0.017554,0.2617107 0.03239,0.3750315 0.2602723,0.5905444 0.2307932,0.2182667 0.2522796,0.4693357 0.05431,0.6346141 -0.045364,0.03787 -0.1077411,0.125296 -0.1458449,0.204405 l -0.066579,0.13823 -0.463513,0.135533 -0.4635131,0.135532 -0.4898981,0.01065 c -0.4657111,0.01013 -0.492738,0.0088 -0.5474142,-0.02649 z"
     id="path1483"
     style="fill:#ffffff;fill-opacity:1;stroke:#000000;stroke-width:0.218;stroke-opacity:1;stroke-miterlimit:4;stroke-dasharray:none"
     inkscape:connector-curvature="0" />
</svg>
