<?xml version="1.0" encoding="UTF-8" standalone="no"?>
<!-- Generator: Adobe Illustrator 12.0.0, SVG Export Plug-In . SVG Version: 6.00 Build 51448)  -->

<svg
   xmlns:dc="http://purl.org/dc/elements/1.1/"
   xmlns:cc="http://creativecommons.org/ns#"
   xmlns:rdf="http://www.w3.org/1999/02/22-rdf-syntax-ns#"
   xmlns:svg="http://www.w3.org/2000/svg"
   xmlns="http://www.w3.org/2000/svg"
   xmlns:sodipodi="http://sodipodi.sourceforge.net/DTD/sodipodi-0.dtd"
   xmlns:inkscape="http://www.inkscape.org/namespaces/inkscape"
   version="1.1"
   id="Layer_1"
   width="12.316708"
   height="10.999999"
   viewBox="0 0 12.316708 10.999999"
   overflow="visible"
   enable-background="new 0 0 449 401"
   xml:space="preserve"
   sodipodi:docname="us-highway-state-ca-3.svg"
   style="overflow:visible"
   inkscape:version="0.92.2 5c3e80d, 2017-08-06"><metadata
     id="metadata63"><rdf:RDF><cc:Work
         rdf:about=""><dc:format>image/svg+xml</dc:format><dc:type
           rdf:resource="http://purl.org/dc/dcmitype/StillImage" /><dc:title></dc:title></cc:Work></rdf:RDF></metadata><defs
     id="defs61" /><sodipodi:namedview
     pagecolor="#ffffff"
     bordercolor="#666666"
     borderopacity="1"
     objecttolerance="10"
     gridtolerance="10"
     guidetolerance="10"
     inkscape:pageopacity="0"
     inkscape:pageshadow="2"
     inkscape:window-width="1280"
     inkscape:window-height="755"
     id="namedview59"
     showgrid="false"
     fit-margin-top="0"
     fit-margin-left="0"
     fit-margin-right="0"
     fit-margin-bottom="0"
     inkscape:zoom="13.316884"
     inkscape:cx="6.42448"
     inkscape:cy="2.9890635"
     inkscape:window-x="0"
     inkscape:window-y="1"
     inkscape:window-maximized="1"
     inkscape:current-layer="Layer_1" /><g
     id="g56"
     transform="scale(0.02743142)"><g
       id="g6"><path
         d="M 0.5,256.2793 C 0.5,125.31396 98.078125,17.14209 224.5,0.5 c 126.42187,16.64209 224,124.81396 224,255.7793 v 66.18164 c 0,29.99609 -21.30078,55.0166 -49.60254,60.76074 l -0.17383,0.0352 -0.17285,0.0342 -0.17578,0.0351 -0.18359,0.0371 -0.1836,0.0352 -0.18164,0.0351 -0.18457,0.0352 C 341.57324,394.64258 283.70703,400.5 224.5,400.5 c -59.20703,0 -117.07324,-5.85742 -173.141602,-17.03125 l -0.184082,-0.0352 -0.182129,-0.0351 -0.183105,-0.0352 -0.18457,-0.0371 -0.174805,-0.0351 -0.17334,-0.0342 -0.173828,-0.0352 C 21.801269,377.47754 0.5,352.45703 0.5,322.46094 c 0,-34.24219 0,64.78515 0,-66.18164 z"
         id="path2"
         inkscape:connector-curvature="0"
         style="clip-rule:evenodd;fill:#ffffff;fill-rule:evenodd" /><path
         stroke-miterlimit="3.863693"
         d="M 0.5,256.2793 C 0.5,125.31396 98.078125,17.14209 224.5,0.5 c 126.42187,16.64209 224,124.81396 224,255.7793 v 66.18164 c 0,29.99609 -21.30078,55.0166 -49.60254,60.76074 l -0.17383,0.0352 -0.17285,0.0342 -0.17578,0.0351 -0.18359,0.0371 -0.1836,0.0352 -0.18164,0.0351 -0.18457,0.0352 C 341.57324,394.64258 283.70703,400.5 224.5,400.5 c -59.20703,0 -117.07324,-5.85742 -173.141602,-17.03125 l -0.184082,-0.0352 -0.182129,-0.0351 -0.183105,-0.0352 -0.18457,-0.0371 -0.174805,-0.0351 -0.17334,-0.0342 -0.173828,-0.0352 C 21.801269,377.47754 0.5,352.45703 0.5,322.46094 c 0,-34.24219 0,64.78515 0,-66.18164 z"
         id="path4"
         inkscape:connector-curvature="0"
         style="clip-rule:evenodd;fill:none;fill-rule:evenodd;stroke:#000000;stroke-linecap:round;stroke-linejoin:round;stroke-miterlimit:3.863693" /></g><g
       id="g10"><path
         d="m 224.5,12.608887 c 119.76855,16.549804 212,119.347163 212,243.670413 v 66.18164 c 0,24.17676 -17.1709,44.36914 -39.98926,49 C 341.20215,382.48437 282.9043,388.5 224.5,388.5 166.09521,388.5 108.96924,382.71484 53.660156,371.69238 30.850586,367.05469 12.5,346.63281 12.5,322.46094 V 256.2793 c 0,-124.32325 92.23145,-227.120609 212,-243.670413 z"
         id="path8"
         inkscape:connector-curvature="0"
         style="clip-rule:evenodd;fill:#006b54;fill-rule:evenodd" /></g><g
       id="g54"><g
         id="g52"><g
           id="g14"><path
             d="m 112.54199,142.7749 c -0.17285,1.19678 -0.52832,2.33545 -1.06738,3.41504 -0.53857,1.07959 -1.19971,2.06299 -1.9834,2.95068 -0.7832,0.88721 -1.69141,1.67188 -2.7251,2.35254 -1.03369,0.68067 -2.13134,1.22168 -3.29443,1.62159 -1.91797,0.66064 -3.765137,0.89062 -5.541504,0.68945 -1.775879,-0.20117 -3.429199,-0.77832 -4.960449,-1.73047 -1.530274,-0.95215 -2.901856,-2.26807 -4.114258,-3.94727 -1.212403,-1.67968 -2.208985,-3.65283 -2.989258,-5.91992 -0.791016,-2.29638 -1.222656,-4.47217 -1.296875,-6.52783 -0.07324,-2.05469 0.202148,-3.92187 0.827148,-5.6001 0.625,-1.67822 1.578125,-3.13574 2.858887,-4.37304 1.280762,-1.2378 2.880371,-2.18702 4.79834,-2.84717 2.354492,-0.81055 4.734375,-1.0044 7.139649,-0.58106 2.40527,0.42383 4.52978,1.47217 6.37402,3.14551 l -3.76562,4.07617 c -0.61719,-0.47021 -1.11377,-0.80322 -1.49024,-0.99853 -0.37597,-0.1958 -0.8125,-0.35449 -1.30957,-0.47559 -0.741208,-0.26513 -1.588376,-0.38818 -2.541013,-0.36865 -0.952148,0.0186 -1.8208,0.16357 -2.605468,0.43359 -1.336915,0.46045 -2.353516,1.14356 -3.049317,2.04981 -0.695801,0.90625 -1.159668,1.91894 -1.39209,3.03906 -0.231933,1.12061 -0.266601,2.29492 -0.10353,0.52295 0.162598,1.22803 0.439453,2.40918 0.82959,3.54199 1.100586,3.19776 2.578613,5.46045 4.434082,6.78809 1.855469,1.32861 3.887207,1.6123 6.096196,0.85156 0.66845,-0.22998 1.24902,-0.50342 1.74169,-0.81885 0.49268,-0.31591 0.94629,-0.6997 1.35938,-1.15088 0.41357,-0.45117 0.7998,-1.00683 1.15723,-1.6665 0.35839,-0.65967 0.73681,-1.44873 1.13623,-2.36621 z"
             id="path12"
             inkscape:connector-curvature="0"
             style="clip-rule:evenodd;fill:#ffffff;fill-rule:evenodd" /></g><g
           id="g18"><path
             d="m 143.4668,141.04248 -4.71485,-6.33252 -13.06445,3.25733 -1.14551,7.79345 -5.90527,1.47266 5.14258,-33.1211 5.458,-1.36084 20.00098,26.85206 z m -15.09571,-20.13916 -1.68457,11.15967 8.41114,-2.09717 z"
             id="path16"
             inkscape:connector-curvature="0"
             style="clip-rule:evenodd;fill:#ffffff;fill-rule:evenodd" /></g><g
           id="g22"><polygon
             points="159.22412,133.41504 176.5752,130.66699 177.31836,135.35742 154.50195,138.97119 149.66895,108.4585 155.13428,107.59277 "
             id="polygon20"
             style="clip-rule:evenodd;fill:#ffffff;fill-rule:evenodd" /></g><g
           id="g26"><rect
             x="167.95636"
             y="116.37391"
             transform="rotate(82.998877,183.40331,119.14061)"
             width="30.893927"
             height="5.5334282"
             id="rect24"
             style="clip-rule:evenodd;fill:#ffffff;fill-rule:evenodd" /></g><g
           id="g30"><polygon
             points="210.78223,119.36084 201.15137,119.69727 201.62109,133.15283 195.99902,133.34912 194.9209,102.47461 218.00781,101.66846 218.20068,107.19824 200.73584,107.80811 200.95508,114.0752 210.58594,113.73926 "
             id="polygon28"
             style="clip-rule:evenodd;fill:#ffffff;fill-rule:evenodd" /></g><g
           id="g34"><path
             d="m 249.81543,117.48486 c -0.085,2.42676 -0.46094,4.62061 -1.12891,6.58106 -0.66894,1.96045 -1.58007,3.62793 -2.73535,5.00293 -1.15527,1.37451 -2.53808,2.42578 -4.14746,3.15381 -1.60937,0.72802 -3.39746,1.0581 -5.36328,0.98925 -2.27344,-0.0796 -4.21582,-0.61621 -5.82617,-1.61035 -1.61133,-0.99463 -2.92774,-2.27099 -3.9502,-3.8291 -1.02148,-1.55859 -1.75293,-3.30664 -2.19238,-5.24414 -0.43994,-1.9375 -0.62598,-3.87451 -0.55859,-5.80957 0.0859,-2.45801 0.46289,-4.65918 1.12988,-6.60449 0.66797,-1.94531 1.59473,-3.58936 2.7793,-4.93213 1.18554,-1.34229 2.59668,-2.35449 4.23535,-3.03565 1.63867,-0.68066 3.47168,-0.98584 5.49902,-0.91503 1.90527,0.0664 3.62695,0.51123 5.16797,1.33398 1.53906,0.82275 2.85351,1.94482 3.94141,3.36719 1.08886,1.42187 1.90625,3.11914 2.45214,5.09131 0.54688,1.97265 0.7793,4.12597 0.69727,6.46093 z m -5.53418,-0.0552 c 0.11328,-3.25635 -0.42773,-5.82813 -1.62207,-7.71533 -1.19531,-1.8877 -2.95996,-2.87159 -5.2959,-2.95313 -2.33398,-0.0815 -4.19433,0.77637 -5.58008,2.57324 -1.38476,1.79737 -2.13476,4.32422 -2.24804,7.58057 -0.11621,3.31787 0.4541,5.92139 1.71093,7.81055 1.25684,1.88964 3.05274,2.875 5.38672,2.95654 1.47461,0.0513 2.69239,-0.229 3.65137,-0.84131 0.95996,-0.6123 1.72559,-1.41602 2.29883,-2.41113 0.57324,-0.99512 0.98926,-2.11084 1.24707,-3.34766 0.25879,-1.23682 0.40918,-2.4541 0.45117,-3.65234 z"
             id="path32"
             inkscape:connector-curvature="0"
             style="clip-rule:evenodd;fill:#ffffff;fill-rule:evenodd" /></g><g
           id="g38"><path
             d="m 275.04687,136.0166 -3.46484,-12.64355 -8.19141,-1.00586 -1.47851,12.03662 -5.49121,-0.67432 3.76465,-30.66357 14.0957,1.73095 c 1.12891,0.13868 2.0791,0.34815 2.84961,0.62842 0.77148,0.28076 1.52344,0.71387 2.25684,1.29932 1.36621,0.97314 2.38964,2.229 3.06738,3.76807 0.67871,1.53857 0.91113,3.17773 0.69726,4.91699 -0.21289,1.73877 -0.84179,3.26465 -1.88574,4.57666 -1.04394,1.31152 -2.41113,2.29736 -4.10254,2.95703 l 4.01563,13.82617 z m 2.61329,-21.28125 c 0.14648,-1.18994 -0.13379,-2.18457 -0.8418,-2.98389 -0.70703,-0.79882 -1.74609,-1.28271 -3.11914,-1.45166 l -8.69629,-1.06738 -0.93848,7.64258 8.69532,1.06787 c 1.37304,0.16846 2.49902,-0.0415 3.37695,-0.63086 0.87695,-0.58935 1.38476,-1.44824 1.52344,-2.57666 z"
             id="path36"
             inkscape:connector-curvature="0"
             style="clip-rule:evenodd;fill:#ffffff;fill-rule:evenodd" /></g><g
           id="g42"><polygon
             points="287.34082,137.67139 293.23633,107.3457 298.57617,108.38379 308.58398,131.09082 312.47266,111.08496 317.72266,112.10547 311.82812,142.43115 307.12109,141.51611 296.73828,117.84375 292.68164,138.70947 "
             id="polygon40"
             style="clip-rule:evenodd;fill:#ffffff;fill-rule:evenodd" /></g><g
           id="g46"><rect
             x="310.75244"
             y="127.64375"
             transform="rotate(105.00048,326.19922,130.40991)"
             width="30.89356"
             height="5.5323286"
             id="rect44"
             style="clip-rule:evenodd;fill:#ffffff;fill-rule:evenodd" /></g><g
           id="g50"><path
             d="m 354.24023,155.23145 -0.64355,-7.86915 -12.80469,-4.16064 -5.10156,6.00195 -5.78906,-1.88037 21.91308,-25.36279 5.35059,1.73828 2.73144,33.37061 z m -2.12988,-25.07862 -7.34277,8.5708 8.24414,2.6792 z"
             id="path48"
             inkscape:connector-curvature="0"
             style="clip-rule:evenodd;fill:#ffffff;fill-rule:evenodd" /></g></g></g></g></svg>