<?xml version="1.0" encoding="UTF-8" standalone="no"?>
<!-- Generator: Adobe Illustrator 12.0.0, SVG Export Plug-In . SVG Version: 6.00 Build 51448)  -->

<svg
   xmlns:dc="http://purl.org/dc/elements/1.1/"
   xmlns:cc="http://creativecommons.org/ns#"
   xmlns:rdf="http://www.w3.org/1999/02/22-rdf-syntax-ns#"
   xmlns:svg="http://www.w3.org/2000/svg"
   xmlns="http://www.w3.org/2000/svg"
   xmlns:sodipodi="http://sodipodi.sourceforge.net/DTD/sodipodi-0.dtd"
   xmlns:inkscape="http://www.inkscape.org/namespaces/inkscape"
   version="1.1"
   id="Layer_1"
   width="11"
   height="11"
   viewBox="0 0 11 11"
   overflow="visible"
   enable-background="new 0 0 601 601"
   guidetolerance="10.0"
   gridtolerance="10.0"
   objecttolerance="10.0"
   borderopacity="1.0"
   bordercolor="#666666"
   pagecolor="#ffffff"
   inkscape:version="0.91 r13725"
   sodipodi:docname="us-interstate-shield-2.svg"
   style="overflow:visible">
  <metadata
     id="metadata4204">
    <rdf:RDF>
      <cc:Work
         rdf:about="">
        <dc:format>image/svg+xml</dc:format>
        <dc:type
           rdf:resource="http://purl.org/dc/dcmitype/StillImage" />
        <dc:title />
      </cc:Work>
    </rdf:RDF>
  </metadata>
  <defs
     id="defs4202" />
  <sodipodi:namedview
     pagecolor="#ffffff"
     bordercolor="#666666"
     borderopacity="1"
     objecttolerance="10"
     gridtolerance="10"
     guidetolerance="10"
     inkscape:pageopacity="0"
     inkscape:pageshadow="2"
     inkscape:window-width="1440"
     inkscape:window-height="856"
     id="namedview4200"
     showgrid="false"
     fit-margin-top="0"
     fit-margin-left="0"
     fit-margin-right="0"
     fit-margin-bottom="0"
     inkscape:zoom="44.483446"
     inkscape:cx="5.3132094"
     inkscape:cy="5.8966332"
     inkscape:window-x="0"
     inkscape:window-y="0"
     inkscape:window-maximized="0"
     inkscape:current-layer="Layer_1" />
  <g
     id="g2105"
     transform="matrix(0.01830285,0,0,0.01830297,-6.3609082e-6,-4.2215845e-5)"
     style="fill:#5565a6;fill-opacity:1">
    <path
       style="fill:#5565a6;fill-opacity:1"
       inkscape:connector-curvature="0"
       id="path2107"
       d="m 27.491211,140.49951 546.018559,0 c 7.82226,29.51416 11.99023,60.51807 11.99023,92.50098 0,173.09521 -122.17188,317.6831 -285,352.18017 -162.82715,-34.49707 -285,-179.08496 -285,-352.18017 0,-31.98291 4.167969,-62.98682 11.991211,-92.50098 z" />
  </g>
  <g
     id="g2109"
     transform="matrix(0.01830285,0,0,0.01830297,-6.3609082e-6,-4.2215845e-5)"
     style="fill:#e15a68;fill-opacity:1">
    <path
       style="fill:#e15a68;fill-opacity:1"
       inkscape:connector-curvature="0"
       id="path2111"
       d="m 410.12305,31.775391 c 35.9873,0 70.85742,-4.877442 103.97461,-14.015625 24.04394,32.183593 42.82812,68.518554 55.08203,107.739744 l -537.359378,0 C 44.074219,86.27832 62.858887,49.943359 86.902832,17.759766 c 33.117188,9.138183 67.987788,14.015625 103.974608,14.015625 38.03858,0 74.83106,-5.449707 109.62354,-15.620606 34.79199,10.170899 71.583,15.620606 109.62207,15.620606 z" />
  </g>
  <g
     id="g2113"
     transform="matrix(0.01830285,0,0,0.01830297,-6.3609082e-6,-4.2215845e-5)" />
</svg>
